<svg xmlns="http://www.w3.org/2000/svg" xml:space="preserve" x="0" y="0" style="enable-background:new 0 0 1000 1000" version="1.1" viewBox="0 0 1000 1000"><style>.st0{fill:#fcbf92}.st1{fill:#9d5025}</style><path d="m89.7 558.3 414.5 190.8 414.5-190.8-414.5-17.2-414.5 17.2z" class="st0"/><path d="M505.5-.1 89.9 207.2v292.5h498.3V41.3L505.5-.1z" class="st1"/><path d="M89.9 705.8 505.7 1000l414.6-294.2-415.5-60.5-414.9 60.5z" class="st0"/><path d="M505.5 499.6h219.3v-312l-64-25.6-155.2 45.3-.1 292.3z" class="st1"/><path d="M660.7 499.6h169.5V297.2l-48.5-14.5-121 20.5v196.4z" class="st1"/><path d="M781.7 266.8v232.8h137l1.6-233.9-41.6-16.6-97 17.7z" class="st1"/><path d="M505.5-.1v499.7h82.7V41.3L505.5-.1zm219.2 187.7-64-25.6v337.7h64V187.6zm105.5 109.6-48.5-14.5v217h48.5V297.2zm48.5 202.4h41.6V265.8l-41.6-16.6v250.4zM504.2 599.7v149.4l414.5-103.3v-87.5l-414.5 41.4zm0 252.8V1000l416.1-208v-86.2L504.2 852.5z" style="fill:#f68534"/><path d="M89.9 792.9 504.2 1000V851.4L89.9 705.8v87.1zm-.2-147.2L504.2 749V599.7L89.7 558.3v87.4z" class="st1"/></svg>