<svg xmlns="http://www.w3.org/2000/svg" xml:space="preserve" x="0" y="0" style="enable-background:new 0 0 1000 1000" version="1.1" viewBox="0 0 1000 1000"><style>.st0{fill:#634b1e}.st1{fill:#d9a740}.st2{fill:#886a2a}.st3{fill:#fad791}</style><path d="m909.4 441.4-201.1 8.3-130.4-8.3 215.7-20.7 115.8 20.7" class="st0"/><path d="m793.1 429.7 116.3 11.6V207l-116.3-58.2-8.9 9.6v261.3l8.9 10" class="st1"/><path d="m577.9 206.9 215.2-58.2v281.1l-215.2 11.6V206.9" class="st2"/><path d="m81 441.4 201.1 8.3 130.4-8.3-215.1-23-116.4 23" class="st0"/><path d="M197.3 429.7 81 441V206l116.3-58.1 5.4 10v263l-5.4 8.8" class="st2"/><path d="m412.5 206.9-215.2-58.2v281.1l215.2 11.6V206.9" class="st1"/><path d="m909.4 562.5-201.1-8.3-130.4 8.3 214.7 21.7 116.8-21.7" class="st3"/><path d="m793.1 574.2 116.3-11.6v234.3L793.1 855l-6.1-13.3V586.1l6.1-11.9" class="st1"/><path d="m577.9 797 215.2 58.2v-281l-215.2-11.6V797" class="st2"/><path d="m81 562.5 201.1-8.3 130.4 8.3-216.6 23.6L81 562.5" class="st3"/><path d="M197.3 574.2 81 562.5v234.3L197.3 855l7.1-10.5V586.1l-7.1-11.9" class="st2"/><path d="m412.5 797-215.2 58.2v-281l215.2-11.6V797" class="st1"/><path d="m390.2 342.9 106.7-18.7 213 30.2 18.3 10.6-103.5 11.3-234.5-33.4" class="st0"/><path d="m600.2 342.9-106.7-18.7-222.2 34.5-9.2 6.2 103.5 11.3 234.6-33.3" class="st0"/><path d="m390.2 661 106.7 18.7L709.3 650l18.9-11-103.5-11.3L390.2 661" class="st3"/><path d="m600.2 661-106.7 18.7-223.8-31.9-7.6-8.8 103.5-11.3L600.2 661" class="st3"/><path d="M728.2 364.9V249.1l-109.1-35.7V61.9L495.2-.1 490 8.1l-.9 979.3 6.1 12.6 123.9-61.9V790.5l109.1-35.7V639l-109.1 19.2V345.7l109.1 19.2" class="st1"/><path d="M371.3 61.9v151.6l-109.1 35.7V365l109.1-19.2v312.4L262.2 639v115.8l109.1 35.7v147.6l123.9 61.9V-.1l-123.9 62" class="st2"/></svg>