<svg xmlns="http://www.w3.org/2000/svg" xml:space="preserve" x="0" y="0" style="enable-background:new 0 0 1000 1000" version="1.1" viewBox="0 0 1000 1000"><style>.st2{fill:#2d72b8}</style><path d="M619.7 1000h12.2l198.5-99.3 3.3-4.7V103.7l-3.3-4.7L631.8-.2h-12.3l.2 1000.2" style="fill:#5294cf"/><path d="M361.3 1000H349l-198.4-99.3-4-6.9-2-786.1 6.1-8.7L349-.2h12.5l-.2 1000.2" style="fill:#1f5b98"/><path d="M349.4-.2h282.3V1000H349.4V-.2z" class="st2"/><path d="m934.3 477.4-6.7-1.5-95.8-8.9-1.4.7-198.7-7.9H349.4l-198.7 7.9V316.2l-.2.1.2-.4 198.7-46h282.3l198.7 46 73 38.8v-25l30.9-3.4-3.2-6.2-97.7-69.9-3 1-198.7-61.6H349.4l-198.7 61.6V99l-104 121.7V327l.8-.6 30.1 3.3v25.5l-30.9 16.5v105.8l.8-.1 30.1.4v44.4l-25.9.4-4.9-.5V628l30.9 16.6v25.8L48 673.6l-1.3-1V779l103.9 121.8V748.5l198.7 61.6h282.3L831 748.3l2.6 1.2 96.5-68.9 4.2-6.9-30.9-3.4V645l-4-1.6-66 35.6-2.4 5-199.3 45.8v.1H349.4v-.1l-198.7-46v-152l198.7 7.9v.2h282.3l198.7-8.1 4.5 2.1 92.8-8 6.5-3.2-30.9-.4v-44.4l31-.5" style="fill:#1a476f"/><path d="M830.4 748.5v152.2L934.3 779V673.4l-103.3 75-.6.1m0-64.3.6-.1 103.3-55.6V522.3l-103.9 9.6v152.3M831 316l-.6-.1v151.9l103.9 9.7V371.2L831 316m0-64.2 103.3 74.6V220.7L830.4 99v152.2l.6.2v.4" class="st2"/></svg>