<svg xmlns="http://www.w3.org/2000/svg" xmlns:xlink="http://www.w3.org/1999/xlink" xml:space="preserve" x="0" y="0" style="enable-background:new 0 0 1000 1000" version="1.1" viewBox="0 0 1000 1000"><style>.st0,.st1,.st2,.st3{fill-rule:evenodd;clip-rule:evenodd;fill:#692f56}.st1,.st2,.st3{fill:#ad688b}.st2,.st3{fill:#cfb2c1}.st3{fill:#512843}</style><symbol id="A_72" viewBox="-35 -40 70 80"><path d="M-12.5 8.4 0 9.8l11.6-9L0-9.8l-12.5 1.5V8.4zm34.6-32.9 7.1-1.7 5.2 20.9-5.2 27.6-7.1-1v-45.8z" class="st0"/><path d="m29.2 20.4 5.8 3v-46.8l-5.8-2.8v46.6z" class="st1"/><path d="m22.1 14.7 7.1 1L0 40l-7.8-18.2 29.9-7.1z" class="st2"/><path d="m-22.1 24.5-7.1 1.7-4-47.7 11.1 1.7v44.3z" class="st1"/><path d="m-22.1-14.7-7.1-1L0-40l7.8 18.2-29.9 7.1z" class="st3"/><path d="m7.8 21.8-18.9-4.5-7.5 1.4L0 39.2l7.8-17.4z" class="st2"/><path d="M-7.8-21.8 0-40l18.7 21.3-7.5 1.4-19-4.5z" class="st3"/><path d="M12.5 8.4 0 9.8V-9.8l12.5 1.5V8.4zm22.5 15L0 40V24l31.1-8.8 2.1.6 1.8 7.6z" class="st1"/><path d="M-18.6 18.7 0 24v16l-18.6-8.8V18.7z" class="st0"/><path d="M18.6-18.7 0-24v-16l18.6 8.8v12.5z" class="st1"/><path d="M-35-23.4 0-40v16l-35 9.9v-9.3z" class="st0"/><path d="m-29.2-19.9-5.8-3.6v46.8l5.8 2.8v-46z" class="st0"/></symbol><use xlink:href="#A_72" width="70" height="80" x="-35" y="-40" style="overflow:visible" transform="matrix(12.2 0 0 12.2 500 500)"/></svg>