<svg xmlns="http://www.w3.org/2000/svg" xml:space="preserve" x="0" y="0" style="enable-background:new 0 0 1000 1000" version="1.1" viewBox="0 0 1000 1000"><style>.st0{fill:#8c3223}.st1{fill:#e15343}</style><g id="S3-2"><path id="path13" d="M345.6 75.5C396.2 50.3 446.5 24.7 497.3-.1c.4 84 0 168.3 0 252.5-49.4 11-98.2 24.8-147.6 35.7l6.8 4.4-10.3-1.2c-1.1-23.5 0-47-.6-70.5-.1-48.5 0-96.9 0-145.3z" class="st0"/><path id="path15" d="M497.2-.1c50.6 25.3 101.2 50.6 151.9 75.9v144.8c-.3 22.5 0 44.9 0 67.4l-3.3.9c-49.4-12.4-98.7-25.2-148.3-36.6-.3-84.1.2-168.4-.3-252.4z" class="st1"/><path id="path17" d="M83.6 206.3c22.5-11 44.6-22.6 67.2-33.3-.2 217.4-.2 434.7 0 652.1-22.6-10.4-44.6-22.1-67-33.1-.1-195.1-.2-390.3-.2-585.7z" class="st0"/><path id="path19" d="M150.9 173c64.7 16.6 129.9 31.3 194.7 47.9.4 23.5-.5 47 .6 70.5l10.3 1.2c46.9 7.6 93.4 17.7 140.4 24.8.5 19 .4 37.9 0 56.8-50.3 5.8-100.8 12-151.2 19.1 0 71.1.3 142.3 0 213.4 50.3 7.8 100.9 13.3 151.4 19.6 1 18.7.4 37.4.3 56.2-50.7 8.5-101.1 18-151.6 27.7v67.6c-65.1 16.2-130.3 31-195.1 47.4.3-217.5.3-434.8.2-652.2z" class="st1"/><path id="path21" d="M649 220.6c65-16.1 130.1-31.7 195.1-47.4-.2 211.1-.2 422.2 0 633.4 0 6-.6 12-1.1 18-64.7-15.3-129.3-30.9-193.9-46.8-.3-22.5 0-45.1 0-67.7-50.5-9.6-101.1-19.1-151.9-27.8 0-18.7.7-37.5-.3-56.2-50.5-6.2-101.1-11.8-151.4-19.6.5-71.1 0-142.3 0-213.4 50.7-7 101.2-13.2 151.7-19.2.2-19 .3-37.9 0-56.8 42.5-6.1 84.5-15.6 126.9-22.1 7.5-1.2 14.8-3.2 21.8-6l3.3-.9c-.3-22.6-.4-45.1-.2-67.5z" class="st0"/><path id="path23" d="M844.2 173.2c22.1 11.4 44.7 22.1 67 33.6-.2 195-.2 390.1 0 585.1-22.7 11.4-45.7 22.5-68.2 34.3v-1.6c.5-6 1-12 1.1-18 0-211.1 0-422.2.1-633.4z" class="st1"/><path id="path25" d="M349.8 288c49.5-10.9 98.2-24.7 147.6-35.7 49.6 11.4 99 24.1 148.3 36.6-7 2.8-14.4 4.8-21.8 6-42.4 6.6-84.4 16.1-126.9 22.1-47-7.1-93.5-17.2-140.4-24.8-2.3-1.3-4.6-2.7-6.8-4.2z" style="fill:#5e1f19"/><path id="path27" d="M497.7 374c50.4 6.3 100.9 12.3 151.2 19.2v213.3c-50.5 7.3-101.1 13.7-151.8 19.4.8-84-.3-167.9.6-251.9z" class="st1"/><path id="path29" d="M345.7 710c50.4-9.6 100.9-19.1 151.6-27.7 50.7 8.6 101.3 18.1 151.9 27.8-50.6 12.5-101.1 25.8-151.9 37.4-50.7-12-101.2-24.8-151.6-37.5z" style="fill:#f2b0a9"/><path id="path31" d="M345.6 777.8c.2-22.5 0-45 0-67.6 50.4 12.7 100.9 25.5 151.5 37.5.5 84 .2 168.2 0 252.3-50.8-24.8-101.2-50.4-151.8-75.6.2-49 .3-97.8.3-146.6z" class="st0"/><path id="path33" d="M497.2 747.6c50.8-11.7 101.3-25 151.9-37.4-.2 22.5-.3 45.1 0 67.7.2 48.6 0 97.2 0 146.2-50.6 25.3-101.2 50.5-151.8 75.9.1-84.2.4-168.3-.1-252.4z" class="st1"/></g></svg>