<svg xmlns="http://www.w3.org/2000/svg" xml:space="preserve" x="0" y="0" style="enable-background:new 0 0 1000 1000" version="1.1" viewBox="0 0 1000 1000"><style>.st0{fill:#f58536}.st1{fill:#9d5024}</style><path d="M500.5 501.5V1.5l417.1 207 1.3 292.9h-54.7l1.3-193.6-240.8-69v260.9l-124.2 1.8z" class="st0"/><path d="M500.5.2V501H278.8V112.4L500.5.2zM81.6 500.6V206.7l119.3-57v350.8H80.3" class="st1"/><path d="M200.9 149.8v350.8l77.9.4V169.8l-77.9-20z" class="st0"/><path d="M712.9 329.1v172.7h152.2l.4-194.1-152.6 21.4z" class="st1"/><path d="m624.7 238.8 240.8 69-152.2 21.4-88.6-19.2v-71.2z" style="fill:#6b3918"/><path d="M83.9 588.2 201 608.7v244.9L81.6 793l2.3-204.8zm193.6 31.6v271.6l221.7 110V652.8l-221.7-33z" class="st1"/><path d="M915.4 588.2v207l-416.2 206.1V652.8l416.2-64.6z" class="st0"/><path d="M630.5 573.1v20l-353 27.1V834l-76.6 19.6-.4-249.3 430-31.2z" class="st0"/><path d="m83.9 588.2 451.8-24.5 94.4 8.9L199.6 610 83.9 588.2zm193.6 31.6 421.6-42.3 214.1 11.1-414 64.1-221.7-32.9z" style="fill:#fabe92"/></svg>