<svg xmlns="http://www.w3.org/2000/svg" xmlns:xlink="http://www.w3.org/1999/xlink" xml:space="preserve" x="0" y="0" style="enable-background:new 0 0 1000 1000" version="1.1" viewBox="0 0 1000 1000"><style>.st0,.st1,.st2{fill-rule:evenodd;clip-rule:evenodd;fill:#8c3123}.st1,.st2{fill:#f2b0a9}.st2{fill:#e05243}</style><symbol id="A_54" viewBox="-35 -40 70 80"><path d="m-26.6-10.9 7.9-1.5 9.4 8.6-9.4 6.8-7.9-.4v-13.5z" class="st0"/><path d="m7.7 7.1 17.5 21L35 7 18.6 6 7.7 7.1zm-15.4 0-17.5 21L-35 7l16.4-1 10.9 1.1z" class="st1"/><path d="m35 7-9.8 1.4V28l9.8-4.6V7zM-6.4-10.9l-12.3-1.5V3l12.3-.4c.1 0 .1-13.5 0-13.5z" class="st2"/><path d="m6.2-10.9 12.3-1.6 6.7 8.3L18.5 3 6.2 2.6v-13.5z" class="st0"/><path d="m26.4-11-7.9-1.5V3l7.9-.4V-11z" class="st2"/><path d="M-12.6-13.6 0-16 9.3-4.7 0 3.8l-12.6-.6v-16.8z" class="st0"/><path d="M10.4-21 0-18.7-10.5-21 0-40l10.4 19z" style="fill-rule:evenodd;clip-rule:evenodd;fill:#5e1f18"/><path d="m7.7 7.1 17.5 1.3V28L7.7 23.5V7.1zM-35 7l9.8 1.4V28l-9.8-4.6V7z" class="st0"/><path d="m-7.7 7.1-17.5 1.3V28l17.5-4.5V7.1z" class="st2"/><path d="M18.5 9.3 0 7.7l-18.5 1.7L0 40 18.5 9.3z" class="st1"/><path d="M18.5 9.3 0 12v28l18.5-8.8V9.3z" class="st2"/><path d="M-18.5 9.3 0 12v28l-18.5-8.8V9.3z" class="st0"/><path d="M12.5-13.6 0-16V3.8l12.5-.6v-16.8zM10.4-35 0-40v16l10.4 3v-14z" class="st2"/><path d="M-10.5-35 0-40v16l-10.5 3v-14z" class="st0"/></symbol><use xlink:href="#A_54" width="70" height="80" x="-35" y="-40" style="overflow:visible" transform="translate(500 500) scale(12.2286)"/></svg>