<svg xmlns="http://www.w3.org/2000/svg" xml:space="preserve" x="0" y="0" style="enable-background:new 0 0 1000 1000" version="1.1" viewBox="0 0 1000 1000"><style>.st0{fill:#f68536}</style><path d="m225 789.7-96.7 22.1v-626l96.7 22.1v581.8M345.6 826.7 225 861V137.5l120.6 34.2v655m154.8 38-154.7 56.6V77.2l154.7 56.6v730.9M914 791.6 500.4 998.5V-.2L914 206.7v584.9" class="st0"/><path d="M417.9 41.1 500.4-.1v998.6l-82.5-41.2V41.1m-136.1 68 63.8-31.9v843.9l-63.8-31.9V109.1m-107.6 53.8 50.8-25.4v723.3l-50.8-25.4V162.9m-45.8 22.9-41.5 20.7v585.2l41.5 20.7V185.8" style="fill:#9d5025"/></svg>