<svg xmlns="http://www.w3.org/2000/svg" xmlns:xlink="http://www.w3.org/1999/xlink" xml:space="preserve" x="0" y="0" style="enable-background:new 0 0 1000 1000" version="1.1" viewBox="0 0 1000 1000"><style>.st0,.st1{fill-rule:evenodd;clip-rule:evenodd;fill:#876929}.st1{fill:#d9a741}</style><symbol id="A_48" viewBox="-35 -40 70 80"><path d="M-35-14.1v37.5L0 40l35-16.6V14L5.2 10.6v-21.1L35-14.1v-9.4L0-40l-35 16.6v9.3z" class="st0"/><path d="M-35 14.1 0 24v16l-35-16.6v-9.3z" class="st0"/><path d="m-30.5 25.5-4.5-2.1v-46.9l4.5-2.1v51.1z" class="st0"/><path d="m5.3 10.6-35.8 4.8v-30.7l35.8 4.8v21.1zM35-14.1 0-24v-16l35 16.6v9.3zm0 28.2L0 24v16l35-16.6v-9.3z" class="st1"/><path d="M-12.9 8.6 0 10.1v-20.3l-12.9 1.5V8.6zm-13-1.5 8.4 1V-8.1l-8.4 1V7.1z" class="st0"/><path d="M-30.5-15.3 0-24l35 10-29.7 3.4-35.8-4.7z" style="fill-rule:evenodd;clip-rule:evenodd;fill:#624a1e"/><path d="M-30.5 15.3 0 24l35-9.9-29.7-3.5-35.8 4.7z" style="fill-rule:evenodd;clip-rule:evenodd;fill:#fad791"/><path d="M35 5.9 0 10.1v-20.3L35-6V5.9z" class="st1"/></symbol><use xlink:href="#A_48" width="70" height="80" x="-35" y="-40" style="overflow:visible" transform="translate(500 500) scale(12.25)"/></svg>