<svg xmlns="http://www.w3.org/2000/svg" xmlns:xlink="http://www.w3.org/1999/xlink" xml:space="preserve" x="0" y="0" style="enable-background:new 0 0 1000 1000" version="1.1" viewBox="0 0 1000 1000"><style>.st0,.st1,.st2{fill-rule:evenodd;clip-rule:evenodd;fill:#b8852e}.st1,.st2{fill:#d9a741}.st2{fill:#876929}</style><symbol id="A_49" viewBox="-40 -40 80 80"><path d="m-9.1 32.4-8.3-2.3-7.8-8.9 8.7.7 7.4 10.5z" class="st0"/><path d="M-9.1 32.4-3.2 20l-5.5-.8-7.8 2.7 7.4 10.5z" class="st1"/><path d="m-28.2 26.5-4.6-1.3-5.1-5.8 5.4.8 4.3 6.3z" class="st0"/><path d="m-28.2 26.5 3.3-7-3.1-.4-4.5 1.1 4.3 6.3z" class="st1"/><path d="m-40 19.6 4.7 1L-12 .4l-23.3-22.6-4.7 2.4v39.4z" class="st2"/><path d="M-16.9-18.3v37.1l-18.4 1.7v-42.8c0 .1 18.4 4 18.4 4z" class="st1"/><path d="m-29.4 21.8 8.1 1.6 22.5-26-22.5-26.8-8.1 4.1v47.1z" class="st2"/><path d="M25.2-14.6v32l-46.5 6v-52.7l46.5 14.7z" class="st1"/><path d="M16.8 40 5.1 36.7-6 24.1l12.4 1L16.8 40z" class="st0"/><path d="m16.8 40 8.4-17.6-7.9-1.1-11 3.8L16.8 40z" class="st1"/><path d="m-12 25.2 12 2.3L16.2-6.3 0-40l-12 6v59.2z" class="st2"/><path d="m0 27.5 40-8V-20L0-40v67.5z" class="st1"/></symbol><use xlink:href="#A_49" width="80" height="80" x="-40" y="-40" style="overflow:visible" transform="matrix(11.9 0 0 11.9 500 500)"/></svg>