<svg xmlns="http://www.w3.org/2000/svg" xmlns:xlink="http://www.w3.org/1999/xlink" xml:space="preserve" x="0" y="0" style="enable-background:new 0 0 1000 1000" version="1.1" viewBox="0 0 1000 1000"><style>.st0,.st1,.st2,.st3{fill-rule:evenodd;clip-rule:evenodd;fill:#fbbf93}.st1,.st2,.st3{fill:#6b3a19}.st2,.st3{fill:#9d5025}.st3{fill:#f58536}</style><symbol id="A_69" viewBox="-35 -40 70 80"><path d="m-10.5 6.8-16.1 20.5L-35 6.8l15.3-.8 9.2.8zm20.9 0 16.2 20.6 8.2-20.5L19.7 6l-9.3.8z" class="st0"/><path d="m-10.5-6.9-16.1-20.5L-35-6.8l15.5.8 9-.9zm20.9 0 16.2-20.5L35-6.8 19.7-6l-9.3-.9z" class="st1"/><path d="M10.4-6.9 26.6-8v-19.4l-16.2 4v16.5z" class="st2"/><path d="M35-6.8 26.6-8v-19.4l8.4 4v16.6z" class="st3"/><path d="M10.4 6.8 26.6 8v19.4l-16.2-4V6.8z" class="st2"/><path d="M34.8 6.9 26.6 8v19.4l8.2-3.9V6.9zM-10.5-6.9-26.6-8v-19.4l16.1 4v16.5z" class="st3"/><path d="m-35-6.8 8.4-1.2v-19.4l-8.4 4v16.6z" class="st2"/><path d="M-10.5 6.8-26.6 8v19.4l16.1-4V6.8z" class="st3"/><path d="m-35 6.8 8.4 1.2v19.4l-8.4-4V6.8z" class="st2"/><path d="M16.7 9.4 0 7.8l-16.9 1.6L0 40 16.7 9.4z" class="st0"/><path d="M16.7-9.4 0-7.8l-16.9-1.6L0-40 16.7-9.4z" class="st1"/><path d="M16.7-9.4 0-11.7V-40l16.7 7.9v22.7z" class="st3"/><path d="M-16.9-9.3 0-11.7V-40l-16.9 8v22.7z" class="st2"/><path d="M16.7 9.4 0 11.7V40l16.7-7.9V9.4z" class="st3"/><path d="M-16.9 9.3 0 11.7V40l-16.9-8V9.3z" class="st2"/></symbol><use xlink:href="#A_69" width="70" height="80" x="-35" y="-40" style="overflow:visible" transform="matrix(12.2 0 0 12.2 500 500)"/></svg>