<svg xmlns="http://www.w3.org/2000/svg" xml:space="preserve" x="0" y="0" style="enable-background:new 0 0 1000 1000" version="1.1" viewBox="0 0 1000 1000"><style>.st0{fill:#9d5025}.st1{fill:#f68536}.st2{fill:#6b3a19}</style><path d="m325.2 908.6 174.3 87.2 17-12.7-7.2-971.6-9.9-11.6-174.2 87.2v821.5" class="st0"/><path d="m673.8 908.6-174.3 87.2V-.1l174.3 87.2v821.5" class="st1"/><path d="m433.8 362.4-61.2 8.9-285.4-32.1 1.2-3.2 46.3-13.9 4.9 2.8 1.1-2.8 291.2 34 1.9 6.3" class="st2"/><path d="m87.2 206.1 52.4-26.2V325l-52.4 14.3V206.1" class="st0"/><path d="m912 422.2-292.1 15.7-54.7-3.8 10.3-4.3 284.7-16.3 51.8 8.7" class="st2"/><path d="m433.8 362.4-294.1-37.5V179.8l294.1 69v113.6" class="st1"/><path d="m859.3 264.8-294.1 50.6v118.7l294.1-17.6 1.7-3.4-.6-145.6-1.1-2.7" class="st0"/><path d="m912 422.2-52.7-6.8V264.8l52.7 19.3v138.1" class="st1"/></svg>