<svg xmlns="http://www.w3.org/2000/svg" xmlns:xlink="http://www.w3.org/1999/xlink" xml:space="preserve" x="0" y="0" style="enable-background:new 0 0 1000 1000" version="1.1" viewBox="0 0 1000 1000"><style>.st0,.st1,.st2{fill-rule:evenodd;clip-rule:evenodd;fill:#9d5025}.st1,.st2{fill:#f58536}.st2{fill:#6b3a19}</style><symbol id="A_20" viewBox="-40 -40 80 80"><path d="m-35.7-34.7-4.3 2.3v64.7l4.3 2.3 16.9-33.3-16.9-36zm13 11.7 6.3-9.6 28.3 13.5L5.3-18l-28-5zm-4.9 46.7 6.9 10.2 32.5-15-6.3-1c.1-.1-33.1 5.8-33.1 5.8z" class="st0"/><path d="m-25.7 32.1-10 2.5v-69.3l10 2.4v64.4z" class="st1"/><path d="m-31-37.2 5.2-2.8 9.9 44.5-9.8 35.5-5.2-2.8c-.1 0-.1-74.4-.1-74.4zm36.2 55 6.6 1.1L18 .7l-6.1-19.8L5.2-18v35.8z" class="st0"/><path d="M-15.5 36.9-25.7 40v-80l10.2 3.1v73.8z" class="st1"/><path d="m18.8 17.4-44.6 8.9V40l44.6-13.5v-9.1zm.1-35-44.7-9.1V-40l44.7 13.6v8.8z" class="st1"/><path d="m11.9-28.6 7.2 2.1v53l-7.2 2.1v-57.2z" class="st1"/><path d="M40-7 20.8-6 14-6.5l19.4-16.7L40-7z" class="st2"/><path d="m14-6.5 19.4-1.2v-15.6L14-19.9v13.4z" class="st0"/><path d="M-4.2-7.8 15.4-29l10 20.5L5.1-7.2l-9.3-.6z" class="st2"/><path d="m-4.2-7.8 19.6-1.8V-29l-19.6 4.9v16.3zM14 6.8l26 .5-6.6 16.3L14 20.2V6.8z" class="st0"/><path d="m-4.2 8.1 29.6.7-10 20.5-19.6-4.9V8.1z" class="st0"/><path d="m-4.2 8.1 19.6 1.8 10-1.1L5.1 7.4l-9.3.7zM40 7.3l-19.2-1-6.8.5L33.4 8l6.6-.7z" style="fill-rule:evenodd;clip-rule:evenodd;fill:#fbbf93"/><path d="M33.4-7.7 40-7v-14.2l-6.6-2.1v15.6zm-8-.8-10-1.1V-29l10 3.2v17.3zm8 16.5 6.6-.7v14.2l-6.6 2.1V8zm-8 .8-10 1.1v19.4l10-3.2V8.8z" class="st1"/></symbol><use xlink:href="#A_20" width="80" height="80" x="-40" y="-40" style="overflow:visible" transform="translate(503 500) scale(12.025)"/></svg>