<svg xmlns="http://www.w3.org/2000/svg" xmlns:xlink="http://www.w3.org/1999/xlink" xml:space="preserve" x="0" y="0" style="enable-background:new 0 0 1000 1000" version="1.1" viewBox="0 0 1000 1000"><style>.st1,.st2{fill-rule:evenodd;clip-rule:evenodd;fill:#19486f}.st2{fill:#2e73b8}</style><symbol id="A_23" viewBox="-35 -40 70 80"><path d="m26.8 6.7-15.7-.8H11v-.3h-22V6h-.1l-15.7.8-8.2 2.5 8.2 9.8L-11 21h22l15.8-1.9L35 9.3l-8.2-2.6z" style="fill-rule:evenodd;clip-rule:evenodd;fill:#99bce3"/><path d="m26.8-6.7-15.7.8H11v.5h-22v-.5h-.1l-15.7-.8-8.2-2.6 8.2-9.8L-11-21h22l15.8 1.8L35-9.3l-8.2 2.6z" class="st1"/><path d="m35-9.3-8.8-4-8.9-9.4 8.9-9.3 8.8 9.7v13zm0 18.6-8.8 4-11.6 11.1 11.6 7.7 8.8-9.7V9.3z" class="st2"/><path d="m10.9-16.6-18-11.7 18-11.7 15.3 7.9v18.8l-15.3-3.3zm0 33.3L-4.5 28.3 10.9 40l15.3-7.9V13.3l-15.3 3.4zm7.7-6.5-10.9 2L-3.1 0 7.7-12.3l10.9 1.6v20.9z" style="fill-rule:evenodd;clip-rule:evenodd;fill:#5294cf"/><path d="M10.9-16.6V-40H-11l-12.4 15.7 12.4 7.7h21.9zm0 33.3V40H-11l-12.4-16 12.4-7.4c.1.1 21.9.1 21.9.1zm-3.2-4.5H-7.7L-17 0l9.3-12.3H7.7v24.5z" class="st2"/><path d="M-10.9-16.6V-40l-15.3 7.9-6.3 14.1 6.3 4.7 15.3-3.3zm0 33.3V40l-15.3-7.9-6.8-15.4 6.7-3.3 15.4 3.3zm-7.7-6.5 10.9 2v-24.5l-10.9 1.6v20.9z" style="fill-rule:evenodd;clip-rule:evenodd;fill:#205b99"/><path d="m-35-9.3 8.8-4v-18.8l-8.8 9.7v13.1zm0 18.6 8.8 4v18.8l-8.8-9.7V9.3z" class="st1"/></symbol><use xlink:href="#A_23" width="70" height="80" x="-35" y="-40" style="overflow:visible" transform="matrix(12 0 0 12 500 500)"/></svg>