<svg xmlns="http://www.w3.org/2000/svg" xml:space="preserve" x="0" y="0" style="enable-background:new 0 0 1000 1000" version="1.1" viewBox="0 0 1000 1000"><style>.st0{fill:#9d5025}.st1{fill:#f68536}</style><path d="m82 790.9 52.7 26.4 8.7-15.4V190.2l-8.7-11.3L82 205.3v585.6" class="st0"/><path d="m236 203.9-101.3-25v638.3L236 793.6V203.9" class="st1"/><path d="M546.8 252.4 619 215l240.1 93-63.8 8.3-248.5-63.9" style="fill:#6b3a19"/><path d="m549.6 743.7 70.8 37.5 240.1-93-63.8-8.3-247.1 63.8" style="fill:#fbbf93"/><path d="m567.6 641 126.3 16.7 7.2-13V353.9l-7.2-15.4-126.3 16.7V641M197.1 147l77.7-38.9 8.5 16.4v746.3l-8.5 17.2-77.7-38.9V147" class="st0"/><path d="m433 835.3-158.2 51.3V108.1L433 159.5v675.8" class="st1"/><path d="m372 935.2 123.5 62.4 12.9-14.8v-966L495.5-1.5 372 60.9v874.3m420.4-618.9 63.8-8.3 5.5 8v364.3l-5.5 9.4-63.8-8.3V316.3" class="st0"/><path d="M693.9 338.5V659l131.8-161-131.8-159.5" class="st1"/><path d="M856.3 178.9 495.5-1.5v999.1L909 790.9V205.3l-52.7-26.4zm0 511.1L619 760.9V235.2l237.3 70.9V690z" class="st1"/></svg>