<svg xmlns="http://www.w3.org/2000/svg" xmlns:xlink="http://www.w3.org/1999/xlink" xml:space="preserve" x="0" y="0" style="enable-background:new 0 0 1000 1000" version="1.1" viewBox="0 0 1000 1000"><style>.st0,.st1,.st2{fill-rule:evenodd;clip-rule:evenodd;fill:#b7ca9d}.st1,.st2{fill:#4b612c}.st2{fill:#759c3e}</style><symbol id="A_44" viewBox="-35 -40 70 80"><path d="M35 15.1 0 9.9l-35 5.2L0 40l35-24.9z" class="st0"/><path d="m-28 14.4 5.9 1.8L-8.2-5.3l-13.9-21.5-5.9 2.3v38.9z" class="st1"/><path d="M-1.1 12.6-22 16.3v-43.1L-1.1-22v34.6z" class="st2"/><path d="m-10.5 19.8-8.2-2.5v-53.2l8.2-4.1L13.7-8.5l-24.2 28.3z" class="st1"/><path d="m17.5 13.3-28 6.6V-40l28 11v42.3z" class="st2"/><path d="m0 27.6-35-12.5v7.3L0 40V27.6z" class="st1"/><path d="M35 22.3 0 40V27.6l35-12.5v7.2z" class="st2"/><path d="M25.2 3h-8.5L-7.5 4.7 0 23 25.2 3z" class="st0"/><path d="M-7.5 20.7 0 23V5.5l-7.5-.8v16z" class="st1"/><path d="M25.2 3 0 5.5V23l25.2-7.7V3z" class="st2"/></symbol><use xlink:href="#A_44" width="70" height="80" x="-35" y="-40" style="overflow:visible" transform="translate(500 500) scale(12.25)"/></svg>