<svg xmlns="http://www.w3.org/2000/svg" xmlns:xlink="http://www.w3.org/1999/xlink" xml:space="preserve" x="0" y="0" style="enable-background:new 0 0 1000 1000" version="1.1" viewBox="0 0 1000 1000"><style>.st0,.st1,.st2{fill-rule:evenodd;clip-rule:evenodd;fill:#b7ca9d}.st1,.st2{fill:#4b612c}.st2{fill:#759c3e}</style><symbol id="A_58" viewBox="-35 -40 70 80"><path d="m-35 4.7 5.3-.2 4.7.4-5.5 19.1L-35 4.7z" class="st0"/><path d="M-14.8 19.8 0 24 12-5.5 0-40l-14.8 7v52.8z" class="st1"/><path d="M14.8 19.8 0 24v-64l14.8 7v52.8z" class="st2"/><path d="m25 14.2 5.6.7V5.1L25 4.9v9.3z" class="st1"/><path d="m-25 14.2-5.6.7V5.1l5.6-.3v9.4z" class="st2"/><path d="M-.6 13.8-25 9.7l-5.6.5 28.9 19.5 1.1-15.9z" class="st0"/><path d="m30.5 5.1 4.5-.4v18.7l-4.5-3V5.1z" class="st2"/><path d="m35 4.7-5.3-.2-4.7.4 5.6.3 4.4-.5z" class="st0"/><path d="M-35 9.4 0 16v24l-35-16.6v-14z" class="st1"/><path d="m-30.5 5.1-4.5-.4v18.7l4.5-1.6V5.1z" class="st1"/><path d="M0 13.9v21.7l30.5-25.4-5.5-.5-25 4.2z" class="st0"/><path d="M10.5 7 0 6.2l-10.5.8L0 40 10.5 7z" class="st0"/><path d="M35 9.4 0 16v24l35-16.6v-14z" class="st2"/><path d="M10.5 34.3 0 39.2V8l10.5-1v27.3z" class="st2"/><path d="M-10.5 30.7 0 40V8l-10.5-1v23.7z" class="st1"/></symbol><use xlink:href="#A_58" width="70" height="80" x="-35" y="-40" style="overflow:visible" transform="translate(500 500) scale(12.325)"/></svg>