<svg xmlns="http://www.w3.org/2000/svg" xml:space="preserve" style="enable-background:new 0 0 1000 1000" viewBox="0 0 1000 1000"><style>.st0{display:none}.st1,.st10{display:inline}.st10{fill:#5c6692}.st14{fill:#5d84c4}.st15{fill:#e67606}.st16{fill:#a41185}.st17{fill:#e1d600}.st22{fill:#0098db}.st38{fill:#f8283b}.st41{display:inline;fill:#fff}.st43{fill:#33a7c0}.st44{fill:#fff}.st47{fill:#3a5978}.st56,.st57{display:inline;opacity:.1;enable-background:new}.st57{opacity:.2}.st62{fill:#de752c}.st70{display:inline;fill:#4c4c4c}.st71{fill:#9c0000}.st71,.st72,.st73{display:inline}.st72{fill:#b50808}.st73{fill:#c61818}.st77{fill:#3195e3}.st80{fill-rule:evenodd;clip-rule:evenodd}.st81{display:inline;fill:#ff3c00}.st93{fill:#097eff}.st94{fill:#ecb12f}</style><g id="Confluence"><g id="Layer_2_00000117674498859339375350000011080401653845364123_"><g id="Blue"><linearGradient id="SVGID_00000181087073889791212560000007638135432843685764_" x1="932.418" x2="332.49" y1="1366.304" y2="1021.57" gradientTransform="translate(0 -348)" gradientUnits="userSpaceOnUse"><stop offset=".18" style="stop-color:#0052cc"/><stop offset="1" style="stop-color:#2684ff"/></linearGradient><path d="M55.6 742.2c-10.4 15.6-20.8 35-31.1 49.3-9.1 14.3-3.9 32.4 10.4 41.5l198.5 122c14.3 9.1 33.7 3.9 41.5-10.4 7.8-13 18.2-31.1 29.8-49.3 79.1-129.7 157-114.2 299.7-45.4l197.2 93.4c15.6 7.8 33.7 1.3 40.2-14.3v-1.3l94.7-214.1c6.5-15.6 0-32.4-15.6-40.2-41.4-19.4-124.4-58.4-198.4-94.7-266-127.1-493-119.4-666.9 163.5z" style="fill:url(#SVGID_00000181087073889791212560000007638135432843685764_)"/><linearGradient id="SVGID_00000033328581771589574420000002104220511678068876_" x1="-89.288" x2="-689.369" y1="-1156.83" y2="-1501.716" gradientTransform="rotate(180 -10.585 -587.355)" gradientUnits="userSpaceOnUse"><stop offset=".18" style="stop-color:#0052cc"/><stop offset="1" style="stop-color:#2684ff"/></linearGradient><path d="M944.4 258.2c10.4-15.6 20.8-35 31.1-49.3 9.1-14.3 3.9-32.4-10.4-41.5l-198.5-122c-14.3-9.1-32.4-5.2-42.8 7.8l-1.3 1.3c-7.8 13-18.2 31.1-29.8 49.3-79.2 129.8-157 114.2-299.7 45.4L197 55.8c-15.6-7.8-33.7-1.3-40.2 14.3v1.3L62.1 285.5c-6.5 15.6 0 32.4 15.6 40.2 41.5 19.5 124.6 58.4 198.5 94.7 267.3 128.5 494.3 119.4 668.2-162.2z" style="fill:url(#SVGID_00000033328581771589574420000002104220511678068876_)"/></g></g></g></svg>