<svg xmlns="http://www.w3.org/2000/svg" xmlns:xlink="http://www.w3.org/1999/xlink" xml:space="preserve" x="0" y="0" style="enable-background:new 0 0 1000 1000" version="1.1" viewBox="0 0 1000 1000"><style>.st0{fill:#394d54}.st2{fill:#00acd3}.st3{fill:#20c2ef}.st4{stroke:#394d54;stroke-width:6.0678}</style><path id="path14" d="M577.6 410.6h88.9v90.9h45c20.8 0 42.1-3.7 61.8-10.4 9.7-3.3 20.5-7.8 30-13.6-12.6-16.4-19-37.1-20.9-57.5-2.6-27.7 3-63.9 21.8-85.6l9.3-10.8 11.1 9c28 22.5 51.6 54 55.8 89.9 33.8-9.9 73.4-7.6 103.2 9.6l12.2 7-6.4 12.5c-25.2 49.1-77.8 64.4-129.3 61.7-77 191.8-244.6 282.6-447.9 282.6-105 0-201.4-39.3-256.2-132.4-3.2-5.8-6-11.8-8.9-17.8-18.5-41-24.7-85.9-20.5-130.8l1.3-13.4H204v-90.9h89v-88.9h177.9v-88.9h106.7v177.8" class="st0"/><defs><path id="SVGID_1_" d="M299.5 240.5v178.9H214v89.5h-71.6c-.3 2.6-.6 5.2-.8 7.8-4.5 48.7 4 93.7 23.6 132.1l6.6 11.8c3.9 7.1 8.5 13.7 13.4 20.2 4.8 6.5 6.6 10 9.6 14.3 51.7 58.1 128.7 86.1 217.7 86.1 197 0 364.2-87.3 438.2-283.3 52.5 5.4 102.9-8.1 125.8-52.9-36.6-21.1-83.5-14.3-110.6-.7l71.7-203.7-280.2 178.9h-89.5v-179H299.5z"/></defs><clipPath id="SVGID_2_"><use xlink:href="#SVGID_1_" style="overflow:visible"/></clipPath><g id="g16" style="clip-path:url(#SVGID_2_)"><g id="g18"><g id="g20" transform="translate(0 -22.866)"><path id="path22" d="M485.7 181.5h77.1v77.1h-77.1v-77.1z" class="st2"/><path id="path24" d="M485.7 270.5h77.1v77.1h-77.1v-77.1z" class="st3"/><path id="path26" d="M495.2 252.2V188m11.5 64.2V188m11.7 64.2V188m11.7 64.2V188m11.6 64.2V188m11.6 64.2V188" class="st4"/><g id="use28" transform="translate(0 22.866)"><path id="path26_1_" d="M495.2 341.1v-64.2m11.5 64.2v-64.2m11.7 64.2v-64.2m11.7 64.2v-64.2m11.6 64.2v-64.2m11.6 64.2v-64.2" class="st4"/></g></g><g id="use30" transform="matrix(1 0 0 -1 22.866 4.573)"><g id="g20_1_" transform="translate(0 -22.866)"><path id="path22_1_" d="M574.6 347.5h77.1v-77.1h-77.1v77.1z" class="st2"/><path id="path24_1_" d="M574.6 258.6h77.1v-77.1h-77.1v77.1z" class="st3"/><path id="path26_2_" d="M584.1 276.9v64.2m11.6-64.2v64.2m11.6-64.2v64.2m11.7-64.2v64.2m11.7-64.2v64.2m11.5-64.2v64.2" class="st4"/><g id="use28_1_" transform="translate(0 22.866)"><path id="path26_3_" d="M584.1 187.9v64.2m11.6-64.2v64.2m11.6-64.2v64.2m11.7-64.2v64.2m11.7-64.2v64.2m11.5-64.2v64.2" class="st4"/></g></g></g></g><g id="use32" transform="translate(-91.464 45.732)"><g id="g18_1_"><g id="g20_2_" transform="translate(0 -22.866)"><path id="path22_2_" d="M129.9 359.4H207v77.1h-77.1v-77.1z" class="st2"/><path id="path24_2_" d="M129.9 448.3H207v77.1h-77.1v-77.1z" class="st3"/><path id="path26_4_" d="M139.4 430v-64.2M151 430v-64.2m11.6 64.2v-64.2m11.7 64.2v-64.2M186 430v-64.2m11.5 64.2v-64.2" class="st4"/><g id="use28_2_" transform="translate(0 22.866)"><path id="path26_5_" d="M139.4 519v-64.2M151 519v-64.2m11.6 64.2v-64.2m11.7 64.2v-64.2M186 519v-64.2m11.5 64.2v-64.2" class="st4"/></g></g><g id="use30_1_" transform="matrix(1 0 0 -1 22.866 4.573)"><g id="g20_3_" transform="translate(0 -22.866)"><path id="path22_3_" d="M218.9 525.4H296v-77.1h-77.1v77.1z" class="st2"/><path id="path24_3_" d="M218.9 436.5H296v-77.1h-77.1v77.1z" class="st3"/><path id="path26_6_" d="M228.3 454.8V519m11.6-64.2V519m11.7-64.2V519m11.7-64.2V519m11.6-64.2V519m11.6-64.2V519" class="st4"/><g id="use28_3_" transform="translate(0 22.866)"><path id="path26_7_" d="M228.3 365.8V430m11.6-64.2V430m11.7-64.2V430m11.7-64.2V430m11.6-64.2V430m11.6-64.2V430" class="st4"/></g></g></g></g></g><g id="use34" transform="translate(-45.732 45.732)"><g id="g18_2_"><g id="g20_4_" transform="translate(0 -22.866)"><path id="path22_4_" d="M307.8 359.4h77.1v77.1h-77.1v-77.1z" class="st2"/><path id="path24_4_" d="M307.8 448.3h77.1v77.1h-77.1v-77.1z" class="st3"/><path id="path26_8_" d="M317.3 430v-64.2m11.5 64.2v-64.2m11.7 64.2v-64.2m11.7 64.2v-64.2m11.7 64.2v-64.2m11.5 64.2v-64.2" class="st4"/><g id="use28_4_" transform="translate(0 22.866)"><path id="path26_9_" d="M317.3 519v-64.2m11.5 64.2v-64.2m11.7 64.2v-64.2m11.7 64.2v-64.2m11.7 64.2v-64.2m11.5 64.2v-64.2" class="st4"/></g></g><g id="use30_2_" transform="matrix(1 0 0 -1 22.866 4.573)"><g id="g20_5_" transform="translate(0 -22.866)"><path id="path22_5_" d="M396.7 525.4h77.1v-77.1h-77.1v77.1z" class="st2"/><path id="path24_5_" d="M396.7 436.5h77.1v-77.1h-77.1v77.1z" class="st3"/><path id="path26_10_" d="M406.2 454.8V519m11.6-64.2V519m11.6-64.2V519m11.7-64.2V519m11.7-64.2V519m11.6-64.2V519" class="st4"/><g id="use28_5_" transform="translate(0 22.866)"><path id="path26_11_" d="M406.2 365.8V430m11.6-64.2V430m11.6-64.2V430m11.7-64.2V430m11.7-64.2V430m11.6-64.2V430" class="st4"/></g></g></g></g></g><g id="use36" transform="translate(0 45.732)"><g id="g18_3_"><g id="g20_6_" transform="translate(0 -22.866)"><path id="path22_6_" d="M485.7 359.4h77.1v77.1h-77.1v-77.1z" class="st2"/><path id="path24_6_" d="M485.7 448.3h77.1v77.1h-77.1v-77.1z" class="st3"/><path id="path26_12_" d="M495.2 430v-64.2m11.5 64.2v-64.2m11.7 64.2v-64.2m11.7 64.2v-64.2m11.6 64.2v-64.2m11.6 64.2v-64.2" class="st4"/><g id="use28_6_" transform="translate(0 22.866)"><path id="path26_13_" d="M495.2 519v-64.2m11.5 64.2v-64.2m11.7 64.2v-64.2m11.7 64.2v-64.2m11.6 64.2v-64.2m11.6 64.2v-64.2" class="st4"/></g></g><g id="use30_3_" transform="matrix(1 0 0 -1 22.866 4.573)"><g id="g20_7_" transform="translate(0 -22.866)"><path id="path22_7_" d="M574.6 525.4h77.1v-77.1h-77.1v77.1z" class="st2"/><path id="path24_7_" d="M574.6 436.5h77.1v-77.1h-77.1v77.1z" class="st3"/><path id="path26_14_" d="M584.1 454.8V519m11.6-64.2V519m11.6-64.2V519m11.7-64.2V519m11.7-64.2V519m11.5-64.2V519" class="st4"/><g id="use28_7_" transform="translate(0 22.866)"><path id="path26_15_" d="M584.1 365.8V430m11.6-64.2V430m11.6-64.2V430m11.7-64.2V430m11.7-64.2V430m11.5-64.2V430" class="st4"/></g></g></g></g></g></g><defs><path id="SVGID_3_" d="M299.5 240.5v178.9H214v89.5h-71.6c-.3 2.6-.6 5.2-.8 7.8-4.5 48.7 4 93.7 23.6 132.1l6.6 11.8c3.9 7.1 8.5 13.7 13.4 20.2 4.8 6.5 6.6 10 9.6 14.3 51.7 58.1 128.7 86.1 217.7 86.1 197 0 364.2-87.3 438.2-283.3 52.5 5.4 102.9-8.1 125.8-52.9-36.6-21.1-83.5-14.3-110.6-.7l71.7-203.7-280.2 178.9h-89.5v-179H299.5z"/></defs><clipPath id="SVGID_4_"><use xlink:href="#SVGID_3_" style="overflow:visible"/></clipPath><path id="path38" d="M865.7 444.3c6-46.3-28.7-82.8-50.2-100-24.8 28.7-28.6 103.8 10.2 135.4-21.7 19.3-67.4 36.8-114.3 36.8H136.2c-4.6 48.9 0 284.3 0 284.3h844L976.4 445c-36.6-21.1-83.6-14.3-110.7-.7" style="clip-path:url(#SVGID_4_);fill:#17b5eb"/><defs><path id="SVGID_5_" d="M299.5 240.5v178.9H214v89.5h-71.6c-.3 2.6-.6 5.2-.8 7.8-4.5 48.7 4 93.7 23.6 132.1l6.6 11.8c3.9 7.1 8.5 13.7 13.4 20.2 4.8 6.5 6.6 10 9.6 14.3 51.7 58.1 128.7 86.1 217.7 86.1 197 0 364.2-87.3 438.2-283.3 52.5 5.4 102.9-8.1 125.8-52.9-36.6-21.1-83.5-14.3-110.6-.7l71.7-203.7-280.2 178.9h-89.5v-179H299.5z"/></defs><clipPath id="SVGID_6_"><use xlink:href="#SVGID_5_" style="overflow:visible"/></clipPath><path id="path40" d="M136.2 578.9v221.7h844V578.9" style="clip-path:url(#SVGID_6_);fill-opacity:.17"/><defs><path id="SVGID_7_" d="M299.5 240.5v178.9H214v89.5h-71.6c-.3 2.6-.6 5.2-.8 7.8-4.5 48.7 4 93.7 23.6 132.1l6.6 11.8c3.9 7.1 8.5 13.7 13.4 20.2 4.8 6.5 6.6 10 9.6 14.3 51.7 58.1 128.7 86.1 217.7 86.1 197 0 364.2-87.3 438.2-283.3 52.5 5.4 102.9-8.1 125.8-52.9-36.6-21.1-83.5-14.3-110.6-.7l71.7-203.7-280.2 178.9h-89.5v-179H299.5z"/></defs><clipPath id="SVGID_8_"><use xlink:href="#SVGID_7_" style="overflow:visible"/></clipPath><path id="path42" d="M436.6 780.8c-52.7-25-81.6-59-97.7-96.1l-160 7 81.7 108.9 176-19.8" style="clip-path:url(#SVGID_8_);fill:#d4edf1"/><defs><path id="SVGID_9_" d="M299.5 240.5v178.9H214v89.5h-71.6c-.3 2.6-.6 5.2-.8 7.8-4.5 48.7 4 93.7 23.6 132.1l6.6 11.8c3.9 7.1 8.5 13.7 13.4 20.2 4.8 6.5 6.6 10 9.6 14.3 51.7 58.1 128.7 86.1 217.7 86.1 197 0 364.2-87.3 438.2-283.3 52.5 5.4 102.9-8.1 125.8-52.9-36.6-21.1-83.5-14.3-110.6-.7l71.7-203.7-280.2 178.9h-89.5v-179H299.5z"/></defs><clipPath id="SVGID_10_"><use xlink:href="#SVGID_9_" style="overflow:visible"/></clipPath><path id="path44" d="M869.4 442.6v.1c-81.1 104.6-197.5 196-322.5 244-111.5 42.8-208.6 43-275.7 8.6-7.2-4.1-14.3-8.6-21.4-12.9-49.2-34.4-76.8-91.2-74.5-166h-39.1v284.3h844V427.2H883l-13.6 15.4z" style="clip-path:url(#SVGID_10_);fill-opacity:8.500000e-02"/><path id="path46" d="M181.4 688c55.1 3 113.9 3.6 165.2-12.5" style="fill:none;stroke:#394d54;stroke-width:13.2246;stroke-linecap:round"/><path id="path48" d="M401.3 648.8c0 11.7-9.5 21.3-21.3 21.3-11.7 0-21.3-9.5-21.3-21.3s9.5-21.3 21.3-21.3 21.3 9.5 21.3 21.3z" style="fill:#d4edf1"/><path id="path50" d="M385.6 634.6c-1.9 1.1-3.1 3.1-3.1 5.4 0 3.4 2.8 6.2 6.2 6.2 2.4 0 4.4-1.3 5.5-3.2.7 1.8 1.2 3.8 1.2 5.8 0 8.4-6.8 15.2-15.2 15.2-8.4 0-15.2-6.8-15.2-15.2 0-8.4 6.8-15.2 15.2-15.2 1.8 0 3.7.3 5.4 1z" class="st0"/><path id="path52" d="M3.9 583.5h989.2c-21.5-5.5-68.1-12.8-60.5-41.1-39.2 45.3-133.6 31.8-157.5 9.4-26.5 38.5-181.1 23.9-191.9-6.1-33.3 39.1-136.4 39.1-169.7 0-10.8 30-165.3 44.6-191.9 6.1-23.8 22.3-118.3 35.9-157.5-9.4 8 28.2-38.6 35.6-60.2 41.1" class="st0"/></svg>