<svg xmlns="http://www.w3.org/2000/svg" xmlns:xlink="http://www.w3.org/1999/xlink" xml:space="preserve" style="enable-background:new 0 0 1000 1000" viewBox="0 0 1000 1000"><defs><circle id="a" cx="500" cy="499.8" r="500.2"/></defs><clipPath id="b"><use xlink:href="#a" style="overflow:visible"/></clipPath><path d="M714.2 280.9H31c-17.2 0-31.3-14.1-31.3-31.3V30.8C-.3 13.6 13.8-.5 31-.5h891.1c17.2 0 31.3 14.1 31.3 31.3v10.9C951.8 173 845.5 280.9 714.2 280.9z" style="clip-path:url(#b);fill:#f0bf1a"/><defs><circle id="c" cx="500" cy="499.8" r="500.2"/></defs><clipPath id="d"><use xlink:href="#c" style="overflow:visible"/></clipPath><path d="M954.9 1000H2.9V718.6h714.4c131.3 0 237.6 106.3 237.6 237.6v43.8z" style="clip-path:url(#d);fill:#3ebeb0"/><defs><circle id="e" cx="500" cy="499.8" r="500.2"/></defs><clipPath id="f"><use xlink:href="#e" style="overflow:visible"/></clipPath><path d="M657.9 640.4H-50.3V359.1h708.2c78.2 0 140.7 62.5 140.7 140.7s-64.1 140.6-140.7 140.6z" style="clip-path:url(#f);fill:#07a5de"/><defs><circle id="g" cx="500" cy="499.8" r="500.2"/></defs><clipPath id="h"><use xlink:href="#g" style="overflow:visible"/></clipPath><path d="M437.5 359.1H-25.3v281.4h462.7c10.9-42.2 17.2-89.1 17.2-140.7s-6.2-98.5-17.1-140.7z" style="clip-path:url(#h);fill:#231f20"/><path d="M248.3 66.7c-84.4 50-154.8 125.1-198.5 214.2h368.9c-37.5-86-96.9-157.9-170.4-214.2z" style="fill:#d7a229"/><path d="M263.9 940.6c71.9-57.8 129.8-134.4 165.7-222H49.8c46.9 93.8 121.9 172 214.1 222z" style="fill:#019b8f"/></svg>