<svg xmlns="http://www.w3.org/2000/svg" xmlns:xlink="http://www.w3.org/1999/xlink" xml:space="preserve" x="0" y="0" style="enable-background:new 0 0 1000 1000" version="1.1" viewBox="0 0 1000 1000"><style>.st0,.st1,.st2,.st3{fill-rule:evenodd;clip-rule:evenodd;fill:#9d5025}.st1,.st2,.st3{fill:#f58536}.st2,.st3{fill:#6b3a19}.st3{fill:#fbbf93}</style><symbol id="A_14" viewBox="-35 -40 70 80"><path d="m-31.5-25.1-3.5 1.7v46.9l3.5 1.7L-17.6 0l-13.9-25.1z" class="st0"/><path d="m-23.3 23.3-8.2 1.8v-50.2l8.2 1.8v46.6z" class="st1"/><path d="m-27.6-26.9 4.3-2 10.2 29-10.2 29-4.3-2v-54z" class="st0"/><path d="M-13.1 26.2-23.3 29v-58l10.2 2.7v52.5z" class="st1"/><path d="m-18.5-31.3 5.4-2.6L20.6 0l-33.7 33.8-5.4-2.5v-62.6z" class="st0"/><path d="m23.4 21-36.5 12.8v-67.6l36.5 12.6V21z" class="st1"/><path d="m18.6-6.3-6.8.4L-7-7.4 0-40 18.6-6.3z" class="st2"/><path d="M0-8.1V-40l-7 3.3v29.3l7-.7z" class="st0"/><path d="M18.6-6.3v-24.9L0-40v31.9l18.6 1.8z" class="st1"/><path d="m18.6 6.1-6.4-.4L-7 7.2 0 40 18.6 6.1z" class="st3"/><path d="M-7 7.2v29.5L0 40V7.8l-7-.6z" class="st0"/><path d="M0 7.8V40l18.6-8.8V6.1L0 7.8z" class="st1"/><path d="m35 4.6-4-.2-10.4.9L25 28.2 35 4.6z" class="st3"/><path d="M25 5.5v22.7l10-4.7V4.6l-10 .9z" class="st1"/><path d="m35-4.8-4 .2-10.4-.9L25-28.2 35-4.8z" class="st2"/><path d="M35-4.8v-18.7l-10-4.7v22.5l10 .9z" class="st1"/><path d="m20.6 27.1 4.4 1.1V5.5l-4.4-.2v21.8zm0-54.2 4.4-1.1v22.5l-4.4.2v-21.6z" class="st0"/></symbol><use xlink:href="#A_14" width="70" height="80" x="-35" y="-40" style="overflow:visible" transform="translate(500 500) scale(12.175)"/></svg>