<svg xmlns="http://www.w3.org/2000/svg" xml:space="preserve" style="enable-background:new 0 0 1000 1000" version="1.0" viewBox="0 0 1000 1000"><style>.st134{fill:#ffa000}</style><pattern id="_2002046508__f" width="1" height="1" patternUnits="userSpaceOnUse" style="overflow:visible" viewBox="0 -1 1 1"><path d="M0-1h1v1H0z" style="fill:none"/><path d="M0 0h100v-100H0V0z" style="fill:#7d2ae7"/><radialGradient id="SVGID_1_" cx="7698.356" cy="-9371.099" r="1" gradientTransform="matrix(16.8 17.28 11.484 -11.165 -21673.61 -237685.297)" gradientUnits="userSpaceOnUse"><stop offset="0" style="stop-color:#6420ff"/><stop offset="1" style="stop-color:#6420ff;stop-opacity:0"/></radialGradient><path d="M0 0h100v-100H0V0z" style="fill:url(#SVGID_1_)"/><radialGradient id="SVGID_00000021798922671143153600000004135567643026098595_" cx="7514.11" cy="-8878.696" r="1" gradientTransform="matrix(46.72 -4.16 -3.3156 -37.2369 -380495.281 -299373.906)" gradientUnits="userSpaceOnUse"><stop offset=".25" style="stop-color:#00c4cc"/><stop offset="1" style="stop-color:#00c4cc;stop-opacity:0"/></radialGradient><path d="M0 0h100v-100H0V0z" style="fill:url(#SVGID_00000021798922671143153600000004135567643026098595_)"/><radialGradient id="SVGID_00000111160247574016519070000016637515209664144816_" cx="7653.444" cy="-9215.309" r="1" gradientTransform="matrix(23.5397 18.9603 12.9644 -16.0957 -60654.516 -293464.813)" gradientUnits="userSpaceOnUse"><stop offset="0" style="stop-color:#6420ff"/><stop offset="1" style="stop-color:#6420ff;stop-opacity:0"/></radialGradient><path d="M0 0h100v-100H0V0z" style="fill:url(#SVGID_00000111160247574016519070000016637515209664144816_)"/><radialGradient id="SVGID_00000134248208794678429980000016181739272342892987_" cx="7591.115" cy="-9123.534" r="1" gradientTransform="matrix(31.32 15.36 10.5027 -21.4157 -141929.844 -312012.25)" gradientUnits="userSpaceOnUse"><stop offset="0" style="stop-color:#6420ff"/><stop offset="1" style="stop-color:#6420ff;stop-opacity:0"/></radialGradient><path d="M0 0h100v-100H0V0z" style="fill:url(#SVGID_00000134248208794678429980000016181739272342892987_)"/><radialGradient id="SVGID_00000062159475582756637570000015052085841581434782_" cx="7560.305" cy="-8760.481" r="1" gradientTransform="matrix(67.9998 -15.04 -18.446 -83.3992 -675687.188 -616913.813)" gradientUnits="userSpaceOnUse"><stop offset="0" style="stop-color:#00c4cc"/><stop offset="1" style="stop-color:#00c4cc;stop-opacity:0"/></radialGradient><path d="M0 0h100v-100H0V0z" style="fill:url(#SVGID_00000062159475582756637570000015052085841581434782_)"/></pattern><g id="firebase"><path d="m601.8 375.1-90 83.8-83.6-168.6 43.2-96.9c10.9-19.3 28.8-19.6 39.7 0l90.7 181.7z" class="st134"/><path d="M511.8 458.9 175.1 772l253.1-481.7 83.6 168.6z" style="fill:#f57f17"/><path d="M700.5 246.9c16.1-15.4 32.7-10.2 36.9 11.6l87.5 509.2-290.3 174.4c-10.2 5.7-37.2 7.9-37.2 7.9s-24.6-3-34-8.2L175.1 772l525.4-525.1z" style="fill:#ffca28"/><path d="M428.2 290.3 175.1 772 287.9 67.9c4.2-21.8 16.6-24 27.8-4.7l112.5 227.1z" class="st134"/></g></svg>