<svg xmlns="http://www.w3.org/2000/svg" xml:space="preserve" x="0" y="0" style="enable-background:new 0 0 1000 1000" version="1.1" viewBox="0 0 1000 1000"><style>.st0{fill:#9cdaf1}.st1{fill:#7dbbe6}.st4{fill:#ad5c51}</style><path id="puddle" d="M774.2 831.2c0 52.3-121.2 94.8-270.8 94.8-149.6 0-270.8-42.4-270.8-94.8s121.2-94.8 270.8-94.8c149.6.1 270.8 42.5 270.8 94.8z" class="st0"/><g id="shadow-legs"><path d="M429.9 922.5V855c0-8.7-1.6-16-4.2-22.2 17.5 13.6 18.6 47.7 18.6 47.7v43.3c15.7 1.2 31.9 2 48.6 2.2l-.4-43.1c-2.4-59-52.9-66.2-52.9-66.2-18.5-4.2-18.2 5.1-16.3 11.1-18.1-30.9-66.7-26.9-66.7-26.9-16.9 6-1.2 16.8-1.2 16.8 26.5 9.6 28.9 38.5 28.9 38.5v60.2c14.4 2.4 29.7 4.5 45.6 6.1zM642.8 800.8s-48.6-4-66.7 26.9c1.9-6 2.1-15.3-16.3-11.1 0 0-50.5 7.2-52.9 66.2l-.4 43.2c16.6-.1 32.8-.6 48.6-1.7v-43.9s1.2-34.1 18.6-47.7c-2.6 6.2-4.2 13.5-4.2 22.2v68.3c15.8-1.4 31.1-3.3 45.7-5.6v-61.5s2.4-28.9 28.9-38.5c-.1 0 15.6-10.8-1.3-16.8z" class="st1"/></g><path id="cat" d="m981.3 438.4.7-3.5c-79.4-15.9-160.9-16-210.3-14 8.1-29.2 10.5-62.8 10.5-100.2 0-53.7-20.2-96.7-52.9-129.4 5.7-18.5 13.4-59.5-7.6-112.1 0 0-37.1-11.8-120.9 44.3-32.8-8.2-67.8-12.3-102.8-12.3-38.5 0-77.4 4.9-113.7 14.9-86.5-59-124.7-46.9-124.7-46.9-24.9 62.3-9.5 108.5-4.8 120-29.3 31.6-47.2 72-47.2 121.5 0 37.4 4.3 70.9 14.6 100-49.7-1.8-128.3-1.1-204.9 14.2l.7 3.5c77.1-15.4 156.1-15.9 205.5-14.1 2.3 6 4.8 11.9 7.7 17.5-48.9 1.6-132.4 7.8-212.3 30.4l1 3.5c80.6-22.7 164.8-28.8 213.2-30.3 29.2 54.4 86.8 89.6 189.2 100.6-14.5 9.8-29.4 26.4-35.4 54.5-19.8 9.5-82.5 32.6-120.2-32.1 0 0-21.1-38.5-61.4-41.5 0 0-39.1-.6-2.7 24.4 0 0 26.2 12.3 44.2 58.7 0 0 23.6 79 137.2 53.7v81.7s-2.4 28.9-28.9 38.5c0 0-15.6 10.8 1.2 16.8 0 0 73.4 6 73.4-54.1v-89s-2.9-35.3 14.4-47.6v146.2s-1.2 34.9-19.2 48.1c0 0-12 21.7 14.4 15.6 0 0 50.5-7.2 52.9-66.2l1.1-148h12.1l1.2 148c2.4 59 52.9 66.2 52.9 66.2 26.5 6 14.4-15.6 14.4-15.6-18-13.2-19.2-48.1-19.2-48.1v-145c17.3 13.5 14.4 46.3 14.4 46.3v89c0 60.2 73.4 54.1 73.4 54.1 16.8-6 1.2-16.8 1.2-16.8-26.5-9.6-28.9-38.5-28.9-38.5V628.6c0-45.5-19.2-69.6-37.9-82.3 109.2-10.8 161.7-46.1 185.8-100.9 47.9 1.3 134 7.1 216.3 30.4l1-3.5c-81.9-23.1-167.5-29.1-215.8-30.5 2.3-5.5 4.3-11.3 6.1-17.2 49.1-2 131-2 210.7 13.9l.3-.1z"/><path id="face" d="M675.4 318.1c23.5 21.3 37.3 47.1 37.3 74.8 0 129.5-96.5 133-215.6 133s-215.6-17.9-215.6-133c0-27.6 13.6-53.1 36.8-74.4 38.8-35.4 104.4-16.6 178.8-16.6 74.1 0 139.5-18.9 178.3 16.2z" style="fill:#f4cbb2"/><path id="eyes" d="M425.4 399.5c0 35.7-20.1 64.6-44.9 64.6s-44.9-28.9-44.9-64.6c0-35.7 20.1-64.6 44.9-64.6 24.8.1 44.9 29 44.9 64.6zm240.7 0c0 35.7-20.1 64.6-44.9 64.6s-44.9-28.9-44.9-64.6c0-35.7 20.1-64.6 44.9-64.6 24.8.1 44.9 29 44.9 64.6z" style="fill:#fff"/><path id="pupils" d="M411 400.3c0 23.8-13.4 43-29.9 43s-29.9-19.3-29.9-43c0-23.8 13.4-43.1 29.9-43.1 16.5.1 29.9 19.3 29.9 43.1zm240.7 0c0 23.8-13.4 43-29.9 43s-29.9-19.3-29.9-43c0-23.8 13.4-43.1 29.9-43.1 16.5.1 29.9 19.3 29.9 43.1z" class="st4"/><circle id="nose" cx="497.8" cy="456.9" r="11.2" class="st4"/><path id="mouth" d="M471.6 485.2c-.7-1.9.3-3.9 2.2-4.6 1.9-.7 3.9.3 4.6 2.2 2.9 8.2 10.6 13.6 19.2 13.6s16.4-5.5 19.2-13.6c.7-1.9 2.7-2.9 4.6-2.2 1.9.7 2.9 2.7 2.2 4.6-3.9 11-14.4 18.4-26 18.4-11.6.1-22.1-7.3-26-18.4z" class="st4"/><path id="octo" d="M222.8 536.6c0 3-3.5 5.4-7.8 5.4s-7.8-2.4-7.8-5.4c0-3 3.5-5.4 7.8-5.4 4.3-.1 7.8 2.4 7.8 5.4zm21.7 12c0 3-3.5 5.4-7.8 5.4s-7.8-2.4-7.8-5.4c0-3 3.5-5.4 7.8-5.4s7.8 2.4 7.8 5.4zm13.2 15.6c0 3-3.5 5.4-7.8 5.4s-7.8-2.4-7.8-5.4c0-3 3.5-5.4 7.8-5.4s7.8 2.4 7.8 5.4zm12.1 18.1c0 3-3.5 5.4-7.8 5.4s-7.8-2.4-7.8-5.4c0-3 3.5-5.4 7.8-5.4s7.8 2.4 7.8 5.4zm13.2 16.8c0 3-3.5 5.4-7.8 5.4s-7.8-2.4-7.8-5.4c0-3 3.5-5.4 7.8-5.4s7.8 2.4 7.8 5.4zm18.1 14.5c0 3-3.5 5.4-7.8 5.4s-7.8-2.4-7.8-5.4c0-3 3.5-5.4 7.8-5.4 4.3-.1 7.8 2.4 7.8 5.4zm25.2 9.6c0 3-3.5 5.4-7.8 5.4s-7.8-2.4-7.8-5.4c0-3 3.5-5.4 7.8-5.4s7.8 2.4 7.8 5.4zm25.2 0c0 3-3.5 5.4-7.8 5.4s-7.8-2.4-7.8-5.4c0-3 3.5-5.4 7.8-5.4s7.8 2.4 7.8 5.4zM377 619c0 3-3.5 5.4-7.8 5.4s-7.8-2.4-7.8-5.4c0-3 3.5-5.4 7.8-5.4s7.8 2.4 7.8 5.4z" style="fill:#c3e4d8"/><path id="drop" d="m194.1 552.6-7.8 27.2s-2 9.8 7.2 11.6c9.7-.2 8.9-9.2 8.2-12.2l-7.6-26.6z" class="st0"/></svg>