<svg xmlns="http://www.w3.org/2000/svg" xml:space="preserve" style="enable-background:new 0 0 1000 1000" viewBox="0 0 1000 1000"><linearGradient id="a" x1="81.515" x2="81.515" y1="957.05" y2="857.77" gradientTransform="matrix(6.7315 0 0 -6.7315 -48.718 6754.016)" gradientUnits="userSpaceOnUse"><stop offset="0" style="stop-color:#f05a28"/><stop offset="1" style="stop-color:#fbca0a"/></linearGradient><path d="M934.2 441.5c-1.6-15.9-4.2-34.2-9.4-54.5-5.2-20.1-13-42.2-24.5-65.2s-26.3-46.7-45.6-69.9c-7.6-9.1-15.9-18-24.8-26.6 13.3-52.9-16.2-98.8-16.2-98.8-50.9-3.1-83.2 15.9-95.2 24.5-2.1-.8-3.9-1.8-6-2.6-8.6-3.4-17.5-6.8-26.9-9.6-9.1-2.9-18.5-5.5-28.2-7.8-9.6-2.3-19.3-4.2-29.2-5.7-1.8-.3-3.4-.5-5.2-.8-22.2-70.9-85.8-100.7-85.8-100.7C466 68.9 452.7 132 452.7 132s-.3 1.3-.8 3.7c-3.9 1-7.8 2.3-11.7 3.4-5.5 1.6-11 3.7-16.2 5.7-5.5 2.1-10.7 4.2-16.2 6.5-10.7 4.7-21.4 9.9-31.8 15.6-10.2 5.7-20.1 12-29.7 18.5l-2.6-1c-98.6-37.6-185.9 7.6-185.9 7.6-8.1 104.8 39.4 170.8 48.8 182.8-2.3 6.5-4.4 13-6.5 19.6-7.3 23.7-12.8 48-16.2 73.3-.5 3.7-1 7.3-1.3 11-91.3 44.9-118.2 137-118.2 137C140.3 703 229 708.5 229 708.5l.3-.3c11.2 20.1 24.3 39.1 38.9 57.1 6.3 7.6 12.5 14.6 19.3 21.6-27.6 79.3 3.9 145 3.9 145 84.5 3.1 140-37 151.8-46.2 8.3 2.9 17 5.5 25.6 7.6 26.1 6.8 52.7 10.7 79.3 11.7 6.5.3 13.3.5 19.8.3h9.4l4.2-.3v.3c39.9 56.9 109.8 64.9 109.8 64.9 49.8-52.4 52.7-104.6 52.7-115.8v-4.7c10.4-7.3 20.3-15.1 29.7-23.7 19.8-18 37.3-38.6 51.9-60.8l3.9-6.3c56.3 3.1 96.2-34.9 96.2-34.9-9.4-58.7-42.8-87.4-49.8-92.8-7-5.5-.3-.3-.8-.5-.5-.3-.5-.5-.5-.5-.3-.3-.8-.5-1.3-.8.3-3.7.5-7 .8-10.7.5-6.3.5-12.8.5-19v-9.9l-.3-3.9-.3-5.2c0-1.8-.3-3.4-.5-5-.3-1.6-.3-3.4-.5-5l-.5-5-.8-5c-1-6.5-2.1-12.8-3.7-19.3-6-25.3-15.9-49.3-28.7-70.9-13-21.6-29.2-40.7-47.7-56.9-18.3-16.2-38.9-29.2-60.2-38.9-21.6-9.6-44.1-15.9-66.5-18.8-11.2-1.6-22.4-2.1-33.6-1.8H623l-4.2.3c-1.6 0-3.1.3-4.4.3-5.7.5-11.5 1.3-17 2.3-22.4 4.2-43.6 12.3-62.1 23.5s-34.7 25-47.7 40.7c-13 15.6-23.2 33.1-30.3 51.1-7 18-11 36.8-12 54.8-.3 4.4-.3 9.1-.3 13.6v3.4l.3 3.7c.3 2.1.3 4.4.5 6.5.8 9.1 2.6 18 5 26.3 5 17 12.8 32.3 22.4 45.4 9.6 13 21.4 23.7 33.6 32.3 12.3 8.3 25.6 14.3 38.6 18.3 13 3.9 26.1 5.5 38.3 5.5h6.8c.8 0 1.6 0 2.3-.3 1.3 0 2.6-.3 3.9-.3.3 0 .8 0 1-.3l1.3-.3c.8 0 1.6-.3 2.3-.3 1.6-.3 2.9-.5 4.4-.8s2.9-.5 4.2-1c2.9-.5 5.5-1.6 8.1-2.3 5.2-1.8 10.4-3.9 14.9-6.3 4.7-2.3 8.9-5.2 13-7.8 1-.8 2.3-1.6 3.4-2.6 4.2-3.4 5-9.6 1.6-13.8-2.9-3.7-8.1-4.7-12.3-2.3l-3.1 1.6c-3.7 1.8-7.3 3.4-11.2 4.7-3.9 1.3-8.1 2.3-12.3 3.1-2.1.3-4.2.5-6.5.8-1 0-2.1.3-3.4.3h-6.3c-1.3 0-2.6 0-3.9-.3h-1.6c-.5 0-1.3 0-1.8-.3-1.3-.3-2.3-.3-3.7-.5-9.6-1.3-19.3-4.2-28.4-8.3-9.4-4.2-18.3-9.9-26.3-17.2-8.1-7.3-15.1-15.9-20.6-25.8s-9.4-20.9-11.2-32.3c-.8-5.7-1.3-11.7-1-17.5 0-1.6.3-3.1.3-4.7v-2.1c0-.8.3-1.6.3-2.3.3-3.1.8-6.3 1.3-9.4 4.4-25 17-49.6 36.3-68.1 5-4.7 10.2-8.9 15.6-12.8 5.5-3.9 11.5-7.3 17.7-10.2 6.3-2.9 12.5-5.2 19.3-7 6.5-1.8 13.3-2.9 20.3-3.7 3.4-.3 6.8-.5 10.4-.5h8.1l2.9.3c7.6.5 14.9 1.6 22.2 3.4 14.6 3.1 28.9 8.6 42.2 15.9 26.6 14.9 49.3 37.8 63.1 65.5 7 13.8 12 28.7 14.3 44.1.5 3.9 1 7.8 1.3 11.7l.3 2.9.3 2.9v11.2c0 1.8-.3 5-.3 6.8-.3 4.2-.8 8.6-1.3 12.8-.5 4.2-1.3 8.3-2.1 12.5-.8 4.2-1.8 8.3-2.9 12.3-2.1 8.1-4.7 16.2-7.8 24.3-6.3 15.6-14.6 30.8-24.5 44.6-20.1 27.6-47.5 50.1-78.8 64.4-15.6 7-32.1 12.3-49 14.9-8.3 1.6-17 2.3-25.6 2.6h-13c-4.7 0-9.1-.3-13.8-.8-18.3-1.3-36.3-4.7-54-9.6-17.5-5-34.4-12-50.6-20.3-32.1-17.2-61-40.7-83.5-69.1-11.2-14.1-21.1-29.5-29.2-45.4s-14.6-32.9-19.3-49.8c-4.7-17.2-7.6-34.7-8.9-52.4l-.3-3.4V510c.3-8.6 1-17.7 2.1-26.6s2.6-18 4.4-26.9c1.8-8.9 3.9-17.7 6.5-26.6 5-17.5 11.2-34.4 18.5-50.3 14.9-31.8 34.2-60.2 57.4-82.9 5.7-5.7 11.7-11 18-16.2 6.3-5 12.8-9.6 19.6-14.1 6.5-4.4 13.6-8.3 20.6-12 3.4-1.8 7-3.7 10.7-5.2l5.5-2.3 5.5-2.3c7.3-3.1 14.9-5.7 22.7-8.1 1.8-.5 3.9-1 5.7-1.8 1.8-.5 3.9-1 5.7-1.6 3.9-1 7.8-2.1 11.7-2.9 1.8-.5 3.9-.8 6-1.3s3.9-.8 6-1.3c2.1-.3 3.9-.8 6-1l2.9-.5 3.1-.5c2.1-.3 3.9-.5 6-.8 2.3-.3 4.4-.5 6.8-.8 1.8-.3 5-.5 6.8-.8 1.3-.3 2.9-.3 4.2-.5l2.9-.3 1.3-.3h1.6c2.3-.3 4.4-.3 6.8-.5l3.4-.3h2.6c1.8 0 3.9-.3 5.7-.3 7.6-.3 15.4-.3 22.9 0 15.1.5 30 2.3 44.3 5 28.9 5.5 56.1 14.6 80.8 26.9 24.8 12 46.7 26.9 66 43 1.3 1 2.3 2.1 3.7 3.1 1 1 2.3 2.1 3.4 3.1 2.3 2.1 4.4 4.2 6.8 6.3 2.3 2.1 4.4 4.2 6.5 6.3 2.1 2.1 4.2 4.2 6.3 6.5 8.1 8.6 15.6 17.2 22.4 26.1 13.6 17.5 24.5 35.2 33.1 51.9l1.6 3.1 1.6 3.1c1 2.1 2.1 4.2 2.9 6.3 1 2.1 1.8 3.9 2.9 6 .8 2.1 1.8 3.9 2.6 6 3.1 7.8 6.3 15.4 8.6 22.4 3.9 11.5 6.8 21.6 9.1 30.5.8 3.7 4.2 6 7.8 5.5 3.9-.3 6.8-3.4 6.8-7.3.3-9.4.1-20.6-1.2-33.3z" style="fill:url(#a)"/></svg>