<svg xmlns="http://www.w3.org/2000/svg" xmlns:xlink="http://www.w3.org/1999/xlink" xml:space="preserve" x="0" y="0" style="enable-background:new 0 0 1000 1000" version="1.1" viewBox="0 0 1000 1000"><style>.st0,.st2,.st3{fill-rule:evenodd;clip-rule:evenodd;fill:#3c4929}.st2,.st3{fill:#759c3e}.st3{fill:#4b612c}</style><symbol id="A_57" viewBox="-30 -40 60 80"><path d="m-19.5-12-7-4.5-3.5 4.7 5.4.4 5.1-.6zm-5.8 5.8L0-5.1l25.3-1.1L0-16l-25.3 9.8zM17.1-12l6.2.8 6.7-.6-6-8.8-6.9 8.6z" class="st0"/><path d="m-8.3 19.9 14.5-2.4 14 2.3-14.5 9.6-14-9.5z" style="fill-rule:evenodd;clip-rule:evenodd;fill:#b7ca9d"/><path d="m-6.7-12.9-7.5-.9-7.8-6.7 7.8-10.9 7.5 1.6v16.9z" class="st2"/><path d="M-25.3-24.9v-6.2L0-40l6.7 9.9-13.4 3.7-7.5-1.6v14L0-16 7.6 7.2 0 40l-7.6-2.6v-7.5l-6.6-1.8V-7l-11.1.8v-6.2l-4.7.6v-11.8l4.7-1.3z" class="st3"/><path d="m13.1-35.4 5.3 1.9 6.9 2.4v6.2l4.7 1.3v11.8l-4.7-.6v6.2L14.2-7v7h11.1v6.4l-5.2.3v6.5L7.6 14.9v7.5l12.6-2.6v6.6L7.6 29.9v7.5L0 40v-56l6.7.9v-11.3L0-28v-12l13.1 4.6z" class="st2"/><path d="M7.6-29.9 0-32l-14.2 4 7.5 1.6 14.3-3.5z" class="st0"/><path d="M6.7-28h7.5v14l-7.5-1.1V-28z" class="st3"/><path d="M-14.2-28 0-32l3 .8 4.6 1.3 6.7 1.9-7.5 1.6L0-28l-6.7 1.6-7.5-1.6z" class="st0"/></symbol><use xlink:href="#A_57" width="60" height="80" x="-30" y="-40" style="overflow:visible" transform="translate(500 500) scale(12.1333)"/></svg>