<svg xmlns="http://www.w3.org/2000/svg" xml:space="preserve" style="enable-background:new 0 0 1000 1000" viewBox="0 0 1000 1000"><path d="M153.5 5h693C927.6 5 995 72.4 995 153.5v693c0 81.1-67.4 148.5-148.5 148.5h-693C72.4 995 5 927.6 5 846.5v-693C5 72.4 72.4 5 153.5 5z" style="fill:#f7df1e"/><path d="M630.6 719.9c19.9 33.6 45.5 55.5 91.1 55.5 39.6 0 63.4-19.9 63.4-45.5 0-31.6-25.7-41.6-67.4-61.4l-21.9-9.9c-67.2-29.8-112.7-63.4-112.7-138.6 0-69.4 51.5-122.8 134.6-122.8 59.4 0 103 21.9 130.6 75.2l-71.4 45.5c-15.9-29.6-33.6-41.6-59.4-41.6-25.8 0-43.5 17.9-43.5 41.6 0 27.6 17.9 39.6 57.4 55.5l23.8 9.9C834.3 618.9 878 650.7 878 729.8c0 83.1-65.4 128.6-154.5 128.6-87.1 0-142.5-41.6-170.4-95l77.5-43.5zM302 727.6c15.9 25.7 27.6 47.5 59.4 47.5s49.5-11.9 49.5-57.4V397h93v316.9c0 97-55.5 138.6-138.6 138.6-75.2 0-118.9-39.6-138.6-85.1l75.3-39.8z"/></svg>