<svg xmlns="http://www.w3.org/2000/svg" xml:space="preserve" x="0" y="0" style="enable-background:new 0 0 1000 1000" version="1.1" viewBox="0 0 1000 1000"><style>.st0{fill:#d33833}.st1{fill:#ef3d3a}.st2{fill:#231f20}.st3{fill:#f0d6b7}.st4{fill:#335061}.st6{fill:#dcd9d8}.st7{fill:#f7e4cd}.st8{fill:#49728b}.st9{fill:#fff}.st10{stroke:#d33833;stroke-width:5.4007}.st11{fill:#81b0c4}.st12{fill:#1d1919}</style><path d="M832.3 481.3c0 187.6-148.7 339.8-332.2 339.8S167.8 668.9 167.8 481.3 316.5 141.6 500 141.6s332.3 152.2 332.3 339.7" class="st0"/><path d="M181.4 565.5s-24.1-354.2 302.5-364.4l-22.8-38L284 222.6l-50.6 58.1-44.2 84.7-25.2 98.5 7.5 65.9" class="st1"/><path d="M272.6 249.6c-58.1 59.8-94.3 142-94.3 233.1s36.2 173.4 94.3 233.1c58.4 59.8 138.5 96.5 227.5 96.5s169.1-36.7 227.5-96.5c58.1-59.8 94.3-142 94.3-233.1s-36.2-173.4-94.3-233.1C669.1 190.1 589 153.1 500 153.1c-88.7 0-169 36.7-227.4 96.5zM257.8 730c-61.9-63.2-100.2-150.9-100.2-247.3 0-96.5 38.3-184.1 100.2-247.6 61.9-63.2 147.6-102.6 242.2-102.6s180.3 39.4 242.2 102.6c61.9 63.2 100.2 150.9 100.2 247.6 0 96.5-38.3 184.1-100.2 247.3-61.8 63.5-147.6 102.6-242.2 102.6-94.5 0-180.3-39.1-242.2-102.6z" class="st2"/><path d="m639.9 483.2-50.6 7.5-68.3 7.8-44.2 1.1-43.1-1.3-33-10.2-29.2-31.6-22.8-64.6-5.1-13.9-30.3-10.2-17.7-29.2-12.6-41.9 13.9-36.7 33-11.5 26.5 12.6L369 289l15.3-2.4 5.1-6.4-5.1-29.2-1.3-36.7 7.5-50.6-.3-28.9 23-37 40.5-29.2 70.7-30.3 78.5 11.5L671.2 99l31.6 50.6 20.4 36.7 5.1 91.1-15.3 78.5-27.9 69.7-26.3 37.2" class="st3"/><path d="m597 702.1-180.9 7.5v30.3l15.3 106.4-7.5 8.8L297.5 812l-8.8-15.3L276 653.6l-29.7-85.7-6.4-20.4 101.3-69.7 31.6-12.6 27.9 34.3 24.1 21.4 27.9 8.8 12.6 3.8 15.3 65.9 11.5 13.9 29.2-10.2-20.4 39.4 109.9 52-13.8 7.6" class="st4"/><path d="m296.9 260.5 33-11.5 26.5 12.6 12.6 27.9 15.3-2.4 3.8-15.3-7.5-29.2 7.5-69.7-6.4-38 22.8-26.5 49.3-39.1-13.9-19-69.7 34.3-29.2 22.8-16.3 35.4-25.2 34.3-7.5 40.5 4.9 42.9" style="fill:#6d6b6d"/><path d="M348.9 141.6s19-46.9 94.9-69.7 3.8-16.3 3.8-16.3l-82.3 31.6-31.6 31.6-14 25.2 29.2-2.4M310.9 251.7s-26.5-88.7 74.8-101.3l-3.8-15.3-69.7 16.3-20.4 65.9 5.1 43.1 14-8.7" class="st6"/><path d="m351.3 369.3 16.6-16.1s7.5.8 8.8 9.6 5.1 88.7 59.5 131.6c5.1 4-40.5-6.4-40.5-6.4l-40.5-63.2M584.2 345.2s2.9-38.3 13.4-35.4c10.4 2.9 10.4 13.4 10.4 13.4s-25.2 16.1-23.8 22M689.2 204.8s-20.9 4.3-22.8 22.8 22.8 3.8 26.5 2.4M536.2 206.2s-27.9 3.8-27.9 21.4 31.6 16.3 40.5 8.8M364.2 288.4s-48-29.2-53.1-1.3c-5.1 27.9-16.3 48 7.5 77.2l-16.3-5.1L287 320l-5.1-38 29.2-30.3 33 2.4 19 15.3 1.1 19M387 208.6S408.4 97.1 517.2 75.7c89.5-17.7 136.7 3.8 154.3 24.1 0 0-79.8-94.9-155.7-65.9-75.8 29.2-131.5 82.2-130.2 116.3 2.2 58.4 1.4 58.4 1.4 58.4M680.4 112.4s-36.7-1.3-38 31.6c0 0 0 5.1 2.4 10.2 0 0 29.2-33 46.9-15.3" class="st7"/><path d="M519.9 157.7s-6.4-50.4-49.3-21.2c-27.9 19-25.2 45.6-20.4 50.6 5.1 5.1 3.8 15.3 7.5 8.3s2.7-29.7 16.6-36.2c13.7-6.4 36.7-13.3 45.6-1.5" class="st7"/><path d="m400.9 499.6-119 53.1s49.3 196.1 24.1 257l-17.7-6.4-1.3-74.8L254 587l-13.9-39.1 124.1-83.6 36.7 35.3M413 608.1l16.9 20.6v75.8h-20.1s-2.4-53.1-2.4-59.5c0-6.4 2.4-29.2 2.4-29.2M413.5 716l-57.1 2.4 16.3 11.5 40.5 6.4" class="st8"/><path d="m608.3 703.5 46.9-1.3 11.5 116.3-48 6.4-10.4-121.4" class="st4"/><path d="m620.9 703.5 70.7-3.8s29.2-73.4 29.2-77.2S746 516.2 746 516.2l-57.1-59.5-11.5-10.2-30.3 30.3v117.6l-26.2 109.1" class="st4"/><path d="m652.5 694.6-44.2 8.8 6.4 35.4c16.3 7.5 44.2-12.6 44.2-12.6M653.8 473l88.7 65.9 2.4-30.3-67-61.9-24.1 26.3" class="st8"/><path d="m457.4 952.6-26.3-106.4-13.1-78.4-2.1-58.1 118.7-6.4h73.7l-6.7 132.9 11.5 102.6-1.3 19-96.2 7.5-58.2-12.7" class="st9"/><path d="M591.9 702.1s-6.4 131.6 12.6 225.3c0 0-38 24.1-93.5 30.3l106.4-3.8 12.6-7.5L614.7 739l-4-44.5" class="st6"/><path d="m668.6 808.5 49.3-13.9 93.5-5.1 13.9-43.1-25.2-74.8-29.2-3.8-40.5 12.6-38.6 19-20.6-3.8-16.1 6.4" class="st9"/><path d="M667.8 783s33-15.3 38-13.9l-13.9-69.7 16.3-6.4s11.5 65.9 11.5 73.4c0 0 70.7 3.8 77.2 3.8 0 0 15.3-29.2 11.5-59.5l13.9 40.5 1.3 22.8-20.4 30.3-22.8 5.1-38-1.3-12.6-16.3-44.2 6.4-13.9 5.1" class="st6"/><path d="M617.9 693.3 590 622.6l-29.2-41.8s6.4-17.7 15.3-17.7h29.2l27.9 10.2-2.4 46.9-12.9 73.1" class="st9"/><path d="M623.6 669.2s-35.4-68.3-35.4-78.5c0 0 6.4-15.3 15.3-11.5 8.8 3.8 27.9 13.9 27.9 13.9V569l-43.1-8.8-29.2 3.8 49.3 116.8 10.2 1.3" class="st6"/><path d="m468.7 502.2-35.1-3.8-33-10.2v11.5l16.1 17.7 50.6 22.8" class="st9"/><path d="M412.1 506s39.1 16.3 52 12.6l1.3 15.3-35.4-7.5-21.4-15.3 3.5-5.1" class="st6"/><path d="M668.6 567.3c-21.4-.5-41-3.2-57.9-8 1.1-7-1.1-13.7.8-18.8 4.8-3.5 12.6-3.5 19.8-4.3-6.2-2.9-15-4.3-22-2.4-.3-4.8-2.4-7.8-3.8-11.5C617.6 518 646 489.9 662 499c7.8 4.6 11 29.7 11.5 42.3.7 10.2-.9 20.4-4.9 26" class="st0"/><path d="M668.6 567.3c-21.4-.5-41-3.2-57.9-8 1.1-7-1.1-13.7.8-18.8 4.8-3.5 12.6-3.5 19.8-4.3-6.2-2.9-15-4.3-22-2.4-.3-4.8-2.4-7.8-3.8-11.5C617.6 518 646 489.9 662 499c7.8 4.6 11 29.7 11.5 42.3.7 10.2-.9 20.4-4.9 26z" class="st10"/><path d="M565.9 532.2c0 1.6 0 3.2-.3 4.8-6.7 4.3-17.4 4.3-24.9 8 10.7.5 19.3 3.2 26.8 6.7-.3 4-.3 8.3-.5 12.3-12.3 8.3-23.6 20.9-38 28.9-7 3.8-30.8 13.4-38 11.5-4-1.1-4.6-6.2-6.2-11-3.5-10.2-11.5-26.8-12.3-42.3-.8-19.6-2.9-52.5 18.2-48.5 17.1 3.2 37 11 50.1 18.2 8.3 5 12.8 10.4 25.1 11.4" class="st0"/><path d="M565.9 532.2c0 1.6 0 3.2-.3 4.8-6.7 4.3-17.4 4.3-24.9 8 10.7.5 19.3 3.2 26.8 6.7-.3 4-.3 8.3-.5 12.3-12.3 8.3-23.6 20.9-38 28.9-7 3.8-30.8 13.4-38 11.5-4-1.1-4.6-6.2-6.2-11-3.5-10.2-11.5-26.8-12.3-42.3-.8-19.6-2.9-52.5 18.2-48.5 17.1 3.2 37 11 50.1 18.2 8.3 5 12.8 10.4 25.1 11.4z" class="st10"/><path d="M578 555.6c-1.9-10.7-4-13.7-3.2-23 28.7-19.1 33.8 32.6 3.2 23" class="st0"/><path d="M578 555.6c-1.9-10.7-4-13.7-3.2-23 28.7-19.1 33.8 32.6 3.2 23z" class="st10"/><path d="M619.3 564.1s-8.8-12.6-2.4-16.3c6.4-3.8 12.6 0 16.3-6.4 3.8-6.4 0-10.2 1.3-17.7s7.5-8.8 13.9-10.2c6.4-1.3 24.1-3.8 26.5 2.4l-7.5-22.8-15.3-5.1-48 27.9-2.4 13.9v27.9M486.4 605.9c-1.6-19.8-3.2-39.4-4.8-59.2-2.7-29.5 7-24.4 32.7-24.4 4 0 24.1 4.6 25.5 7.5 7 14.2-11.5 11 8 21.7 16.3 8.8 45.6-5.4 38.9-25.5-3.8-4.6-19.3-1.3-24.9-4.3l-29.7-15.3c-12.6-6.4-41.5-16.1-54.9-7-34 23 2.1 80.9 14.2 105" class="st1"/><path d="M519.9 157.7c-34.6-8-51.7 14.5-62.2 37.8-9.4-2.1-5.6-15-3.2-21.4 6.2-16.9 31.1-39.7 51.4-36.4 8.6.9 20.4 9 14 20M687.9 196.8h1.6c7.8 16.1 14.5 33.2 24.4 47.7-6.7 15.5-49.8 28.9-49.3 1.6 9.4-4 25.5-.8 33.8-6.2-4.9-13.1-11.6-24.4-10.5-43.1M537.3 197.3c7.5 13.7 9.9 27.9 20.4 38 4.8 4.6 13.9 10.2 9.4 23-1.1 2.9-8.8 9.6-13.4 11-16.3 4.8-54.7 1.1-41.8-19.6 13.7.5 31.9 8.8 42.1-1.1-7.9-12.2-21.8-36.8-16.7-51.3M681.7 335c-24.7 15.8-52.2 33.2-93 29.2-8.6-7.5-12.1-24.4-3.5-35.4 4.3 7.5 1.6 21.4 13.9 23.6 23 4 49.8-14.2 66.4-20.4 10.2-17.4-.8-23.6-10.2-34.8-19-22.8-44.2-51.2-43.4-85.2 7.8-5.6 8.3 8.6 9.4 11 9.9 23 34.8 52.8 52.8 72.6 4.6 4.8 11.8 9.6 12.6 12.9 2.5 9.1-6.1 20.4-5 26.5M355.3 318.4c-7.8-4.6-9.6-23.8-18.8-24.4-13.1-.8-10.7 25.2-10.7 40.5-8.8-8-10.4-33.2-4-46.1-7.5-3.8-10.7 4-15 6.7 5.7-38.8 57.1-17.9 48.5 23.3M697.2 351.4c-11.5 22-27.9 46.1-61.6 46.9-.8-7-1.3-18 0-22.2 26-2.8 42.1-15.9 61.6-24.7M535.4 365.6c21.4 11.3 61.1 12.6 90.6 11.8 1.6 6.4 1.6 14.5 1.6 22.2-37.8 1.6-82.3-7.8-92.2-34M531.4 386.5c15 37.5 66.2 33.2 109.3 32.2-1.9 4.8-5.9 10.7-11.3 12.6-13.9 5.6-52 9.9-71.3-.3-12.1-6.4-20.1-21.2-26.8-29.7-2.9-4.1-18.9-14.6.1-14.8" class="st2"/><path d="M679.8 593.1c-17.4 30-34.3 60.8-54.9 87.1 8.6-25.5 12.3-68.3 13.7-101 18.2-8.6 33.7 1.8 41.2 13.9" class="st11"/><path d="M773.9 700.8c-19.6 4-33.2 23-52.5 21.7 10.7-14.8 28.9-21.2 52.5-21.7M782.4 731.3c-16.1 1.6-34.8 4.3-50.9 2.9 7.8-11.7 37.3-7.4 50.9-2.9M788.1 757.8c-18 .3-40.2 0-57.3-1.3 10.1-11 45.8-4 57.3 1.3" class="st2"/><path d="M646.1 830.2c2.7 22.5 11.5 45.3 10.4 69.9-9.9 3.2-15.5 6.2-28.9 6.2-.8-20.9-3.8-53.1-2.9-73.1 6.4.5 16-4.6 21.4-3" class="st6"/><path d="M617.1 497.9c-9.1 5.9-16.6 13.1-25.5 19.6-19.3 1.1-29.7-1.3-43.7-12.3.3-.8 1.6-.5 1.6-1.6 20.7 9.1 47-3.8 67.6-5.7" class="st3"/><path d="M509.4 638.1c5.6-24.4 27.9-37.2 48-50.6 20.6 26.3 33.2 60 47.2 92.7-33-10-66.5-25.8-95.2-42.1" class="st11"/><path d="M624.6 833.4c-.8 20.1 1.9 52 2.9 73.1 13.4 0 19-2.9 28.9-6.2 1.1-24.7-7.8-47.4-10.4-69.9-5.3-1.8-14.9 3.3-21.4 3zM417.8 719.8c8.8 80.7 21.4 148.2 44.7 219.7 51.7 15.8 113.9 17.1 159.7 2.9-8.3-40.2-4.8-89.2-9.6-132.4-3.8-32.4-1.9-64.8-7-97.8-55.5-11.4-133.7-2.6-187.8 7.6zm200.9-7c-.5 34.6 1.6 68.9 4.3 103.4 13.4-1.9 22.2-3.2 34.6-6.2-4-33.2-3.5-71-11.8-100.5-9.4.4-17.7.1-27.1 3.3zm67.3-5.6c-6.4-1.3-13.7 0-19.6 0 2.9 28.1 9.6 59.2 12.1 89 9.4.3 14.5-4.3 22.2-5.6.6-26.1-2.1-62-14.7-83.4zm102.1 93.3c19.8-4.8 32.2-28.9 26.5-53.9-3.8-16.6-10.2-48.2-17.4-58.9-5.1-7.8-19.3-18.2-30.8-11-18.5 11.8-50.9 15.3-64.3 29.5 6.7 22.5 8.8 53.1 11.5 81.5 23 1.3 51.2-6.4 70.5 1.9-13.4 4.3-30.5 4.3-42.1 10.7 9.6 4.4 31.6 3.6 46.1.2zM604.3 680.1c-13.9-32.7-26.5-66.4-47.2-92.7-20.1 13.4-42.1 26.3-48 50.6 29 16.4 62.5 32.2 95.2 42.1zm34.3-101c-1.3 32.7-5.1 75.6-13.7 101 20.6-26.5 37.5-57.1 54.9-87.1-7.5-12-23-22.4-41.2-13.9zm-38.9-13.6c-7.8-.8-14.5 9.1-24.7 4.8-2.4 2.7-4.6 5.4-7 8 22.5 27.3 33 65.9 50.4 97.8 9.4-30.8 8.3-64.3 10.4-97.8-12.7.6-20-12-29.1-12.8zm-24.9-33c-.8 9.4 1.3 12.3 3.2 23 30.6 9.7 25.5-42-3.2-23zm-34-11.2c-13.1-7.2-33-15-50.1-18.2-21.2-4-19 28.9-18.2 48.5.8 15.5 8.8 31.9 12.3 42.3 1.6 4.8 2.1 9.9 6.2 11 7.2 1.6 31.3-7.8 38-11.5 14.5-7.8 25.7-20.4 38-28.9.3-4 .3-8.3.5-12.3-7.5-3.8-15.8-6.2-26.8-6.7 7.2-3.8 18.2-3.8 24.9-8 0-1.6 0-3.2.3-4.8-12.3-1.5-16.8-6.9-25.1-11.4zm-126-22.8c-11 11.3 30.8 26.3 43.9 27.1 0-7 4-13.7 3.2-18.8-15.7-2.7-36.4-.8-47.1-8.3zm135.1 5.1c0 1.1-1.3.8-1.6 1.6 14.2 11 24.7 13.4 43.7 12.3 8.6-6.2 16.3-13.7 25.5-19.6-21 1.9-47.3 14.8-67.6 5.7zm123.8 37.5c-.5-12.3-3.8-37.8-11.5-42.3-16.1-9.4-44.5 19-56.5 23.3 1.3 3.8 3.5 6.7 3.8 11.5 7.2-1.9 15.8-.5 22 2.4-7.2.8-15 .8-19.8 4.3-1.6 5.1.5 11.8-.8 18.8 16.9 4.8 36.4 7.2 57.9 8 3.8-5.4 5.4-15.6 4.9-26zm-277.4-31.9c-3.5-2.4-26.8-32.7-30-31.3-42.1 16.6-81.5 45.3-116.6 72.6 33.5 72.1 47.2 160.2 49.6 245.2 38.3 18 72.1 43.9 124.3 46.6-6.2-42.6-11.5-80.9-15-121.1-13.1-5.6-31.9.3-44.2-1.6 0-14.7 18.8-6.4 20.4-16.3 1.1-7.5-10.4-8-6.7-19.8 9.6 3.5 14.7 11.3 24.9 14.2 9.4-20.4 0-56.5 1.3-73.7.3-3.2 1.6-17.7 8.8-15.3 6.4 2.1-.3 38.9.3 54.9.5 15-1.9 29.2 4.3 38.6 50.4-7 101.6-11.3 156.2-12.9-12.1-5.1-26.3-9.9-41.8-18.8-8.6-4.8-35.1-14.7-37.5-22.8-4-12.9 10.2-19.6 12.6-30.5-25.5 13.9-30.3-13.4-36.4-32.4-5.4-17.4-8.6-30.5-9.9-40.5-22.2-11.3-45.8-21.7-64.6-35.1zm255.1-27.9c35.1-16.9 41.5 63.5 27.6 89.5 2.1 7.8 9.4 10.7 12.3 17.7-19.6 35.1-41.3 67.8-61.4 102.4 14.7-9.4 36.2-1.6 53.6-8.6 6.4-2.4 11-17.1 15.8-28.9 13.4-32.2 27.3-72.9 33.5-103.4 1.3-7 5.4-22.2 4.3-28.4-1.6-11.3-16.6-19.6-24.4-26.3-14.2-12.9-23-23.8-38-35.9-5.6 8.8-18.5 14.7-23.3 21.9zM316.2 170.2c-16.6 18.5-13.1 52.8-11.3 77.4 30.3-19 70.2 1.6 69.9 33.8 14.5-.3 5.4-18 2.7-29.5-8.6-37.2 14.5-77.4 1.1-111.5-25.9 2.2-47.1 12.7-62.4 29.8zM435.7 63.3c-37.8 10.7-86.3 38.3-101.8 72.3 12.1-1.9 20.4-7.8 32.2-8.6 4.6-.3 10.4 1.9 15.5.5 10.2-2.7 19-25.7 26.8-34.3 7.5-8.3 16.6-12.1 22.8-19.6 4-1.9 9.9-1.9 10.2-7.8-1.7-1.7-3.5-3-5.7-2.5zm197 10.2c-39.4-22.2-105.8-38.9-147.6-18-33.8 16.9-79.3 44.7-94.9 79.8 14.5 34-4.3 65.1-5.6 99.7-.5 18.5 8.6 34.3 9.4 54.4-5.1 8.3-20.1 9.1-30.5 8.6-3.5-17.7-9.6-37.5-27.9-39.7-25.7-2.9-44.7 18.5-45.8 40.7-1.3 26.3 20.1 69.7 50.6 66.7 11.8-1.1 14.7-12.9 27.6-12.9 7 13.9-10.7 18.2-12.6 28.1-.5 2.7 1.3 12.6 2.7 17.4 5.6 22.8 18 52.5 30 69.9 15.5 22.2 45.8 25.5 78.5 27.6 5.9-12.6 27.3-11.5 41.3-8.3-16.9-6.7-32.4-22.8-45.3-37-14.7-16.3-29.7-33.8-30.5-55.2 28.1 38.9 51.2 72.9 102.1 90 38.6 12.9 83.6-5.9 113.3-26.8 12.3-8.6 19.6-22.5 28.4-34.8 32.7-47.2 48-114.1 44.7-179.3-1.3-26.8-1.3-53.6-10.4-71.5-9.4-18.8-41.3-35.9-60-18.8-3.5-18.5 15.5-29.7 37.8-23-15.9-20.3-32.6-44.7-55.3-57.6zm73.4 605.8c30.8-15.3 88.2-41 107.2 0 7.2 15.3 15.5 40.7 19 56.5 5.1 22-5.6 68.6-28.4 75.8-20.1 6.4-43.4 6.2-67.5 1.3-2.9-2.4-5.9-6.4-8.3-10.7-17.1-.5-33.5.8-46.9 8 1.3 12.9-7.2 14.7-15.5 17.4-5.9 23.8 12.1 54.9 7.8 76.4-2.9 15.5-22 18-35.9 20.6-.5 8.6.5 15.8 1.6 23-3.2 11.8-17.4 18.5-31.1 20.1-44.7 5.4-112.5 7.8-155.4-7.8-12.1-29.5-21.4-65.1-31.3-98.6-41.8 4.6-75.8-18-107.7-33-11-5.1-26.3-8-30.5-16.9-4-8.6-2.4-24.9-3.5-40.2-2.4-39.4-4.8-77.4-15-117.6-4.6-18.2-12.9-34-18.5-51.4-5.4-16.1-14.5-36.2-16.9-52.2-3.5-23.8 19-25.2 33.2-35.6 22.2-16.1 39.7-24.9 63.8-39.4 7.2-4.3 28.7-15 31.1-20.1 4.8-9.9-8.3-23.8-11.8-31.6-5.6-12.3-8.6-22.8-9.4-34.8-20.1-3.2-35.6-15.3-44.7-28.7-15.3-22.5-26-64-12.6-95.4 1.1-2.4 6.2-7.5 7-11.3 1.6-7.5-2.9-17.4-3.2-25.5-1.3-41 7-76.4 34.6-88.7 11.3-44.7 51.4-59.5 89.2-81.7 14.2-8.3 29.7-13.7 45.8-19.6 57.6-21.2 146.3-17.1 194.3 19 20.4 15.3 52.8 47.7 64.3 71.3 30.8 61.9 28.4 165.6 7 241.1-2.9 10.2-7 24.9-12.9 37.2-4 8.6-16.6 25.5-15.3 33 1.6 7.8 28.9 28.4 34.8 34 10.4 10.2 30.5 23.6 32.2 36.4 1.9 13.7-5.9 32.4-9.9 45.6-13.1 44.3-26 84.8-40.7 124.1z" class="st2"/><path d="M501.1 375c1.6-2.1 10.7-5.6 23.6.5 0 0-15.3 2.4-13.9 27.9l-6.4-1.3c.2.2-6.5-22.9-3.3-27.1" class="st7"/><path d="M612 592.5c0 3.8-3.2 7-7 7s-7-3.2-7-7 3.2-7 7-7c4.1.1 7 3.3 7 7M619 624.9c0 3.8-3.2 7-7 7s-7-3.2-7-7 3.2-7 7-7c4.1.1 7 3 7 7" class="st12"/></svg>