<svg xmlns="http://www.w3.org/2000/svg" xml:space="preserve" style="enable-background:new 0 0 1000 1000" viewBox="0 0 1000 1000"><style>.st0{display:none}.st1,.st10{display:inline}.st10{fill:#5c6692}.st14{fill:#5d84c4}.st15{fill:#e67606}.st16{fill:#a41185}.st17{fill:#e1d600}.st22{fill:#0098db}.st38{fill:#f8283b}.st41{display:inline;fill:#fff}.st43{fill:#33a7c0}.st44{fill:#fff}.st47{fill:#3a5978}.st56,.st57{display:inline;opacity:.1;enable-background:new}.st57{opacity:.2}.st62{fill:#de752c}.st70{display:inline;fill:#4c4c4c}.st71{fill:#9c0000}.st71,.st72,.st73{display:inline}.st72{fill:#b50808}.st73{fill:#c61818}.st77{fill:#3195e3}.st80{fill-rule:evenodd;clip-rule:evenodd}.st81{display:inline;fill:#ff3c00}.st93{fill:#097eff}.st94{fill:#ecb12f}</style><g id="Jira"><path d="M940.4 473.9 538.9 72.4 500 33.5 197.7 335.7 59.5 473.9c-14.4 14.4-14.4 37.8 0 52.2l276.1 276.1L500 966.5l302.2-302.2 4.7-4.7 133.5-133.3c14.5-14.4 14.6-37.8.2-52.2l-.2-.2zM500 638 362 500l138-138 137.9 138L500 638z" style="fill:#2684ff"/><linearGradient id="SVGID_00000087382710161811020000000013512834531688420762_" x1="46.361" x2="28.892" y1="755.736" y2="773.201" gradientTransform="translate(-36 -8111.79) scale(11.028)" gradientUnits="userSpaceOnUse"><stop offset=".18" style="stop-color:#0052cc"/><stop offset="1" style="stop-color:#2684ff"/></linearGradient><path d="M500 362c-90.3-90.3-90.8-236.6-1-327.4L197.1 336.3l164.3 164.3L500 362z" style="fill:url(#SVGID_00000087382710161811020000000013512834531688420762_)"/><linearGradient id="SVGID_00000046304039828560669380000012773826768210647680_" x1="50.987" x2="68.422" y1="805.917" y2="788.486" gradientTransform="translate(-36 -8111.79) scale(11.028)" gradientUnits="userSpaceOnUse"><stop offset=".18" style="stop-color:#0052cc"/><stop offset="1" style="stop-color:#2684ff"/></linearGradient><path d="M638.2 499.6 500 638c90.7 90.7 90.7 237.8 0 328.5L802.7 664 638.2 499.6z" style="fill:url(#SVGID_00000046304039828560669380000012773826768210647680_)"/></g></svg>