<svg xmlns="http://www.w3.org/2000/svg" xml:space="preserve" x="0" y="0" style="enable-background:new 0 0 1000 1000" version="1.1" viewBox="0 0 1000 1000"><style>.st0{fill-rule:evenodd;clip-rule:evenodd;fill:#fff}.st1{fill:#f6d330}.st1,.st2{fill-rule:evenodd;clip-rule:evenodd}</style><path d="m362.8 268.2-1.5-105.5 62.8-36.8 93.2-62.8 38.3-1.6 39.9 42.9L617 246.8l-29.1 52-120.9-3.1-104.2-27.5z" class="st0"/><path d="m238.7 569.9 32.1-90.4 62.8-75 32.1-64.3 13.8-21.4 229.6-35.2 46 72 128.6 307.7-44.4 55-116.4 194.6-27.5 6.1-212.9 6.1-148.4-165.4L209.6 622l29.1-52.1z" class="st0"/><path d="M532.6 335.7s-7.6-1.6 13.7-6.2c21.5-4.5 21.6-9.1 27.6-15.3 6.1-6.1 9.2-19.9 9.2-35.2 0-15.3 7.6-59.7 6.1-71.9-1.4-12.3-27.6-58.1-38.2-64.3-10.7-6.1-130.1-16.8-130.1-16.8l-36.8 29.1-27.5 25.9 6.2 82.7s-7.8 26-6.2 36.6c1.6 10.7 16.9 23 23 29.1 6.1 6.2 29 30.8 36.6 38.3 7.8 7.6 9.3 15.3 27.6 9.2 18.4-6.1 29.1-6.1 43-16.8 13.7-10.7 45.8-24.4 45.8-24.4z" class="st1"/><path d="M462.2 205.6c4.7-12.3 10.7-35.2 21.4-42.9 10.7-7.6 33.8-14 47.5-12.3 13.8 1.6 39.8 15.3 46 26 6.1 10.7 6.1 53.6 6.1 53.6l-3.1 35.2-21.4-1.5-46-18.4h-7.6s-7.6 3-30.7-9.2c-22.9-12.3-16.9-18.2-12.2-30.5zm-48.9 33.6c.7-.7 2.1-1.7 4.1-2.7 9.3-5.1 29.6-12.7 29.6-12.7s19.8-50.4 3-70.3c-16.7-19.9-53.5-16.8-53.5-16.8s-39.8 22.9-38.3 32.1c1.6 9.2 3.1 41.3 4.7 45.8 1.4 4.7 7.6 53.6 7.6 53.6l13.7-6.1 19.9-15.3c0 .1 4.6-2.9 9.2-7.6z" class="st0"/><path d="m705.6 701.6 22.2 1.7c3.2.2 6.4.4 9.7.5 16.5.6 30.9 3.1 46.3 5 10.2 1.2 27 7.6 28.2 20.4 1.7 18.9-3.8 39.6 12.2 47.4 16.4 11.1 52.9 36.8 52.9 36.8l10.7 19.8-32.1 29.1L698 957.2l-71.9-24.5v-58.1l3-78.1-7.6-70.4 12.2-27.6 30.7-9.2 41.2 12.3zm-456-34.4c-1.6-1.4-29.5 6.8-31.3 7.2-13 1.9-29.5 10.9-29.5 25.1 0 7.3-.6 14.8-3.9 21.4-2.6 5.1-8.6 12.9-8.5 14.6-2 5.6-5.7 13.5-10.9 16.8-6 .6-32.5 3-32.5 3h-23L96.3 772l10.7 44.5-3.1 35.1-10.6 39.9 25.9 13.7 196 52 44.4-13.7 22.9-56.7-4.7-21.4-21.4-42.9c.2 0-93-135.2-106.8-155.3z" class="st1"/><path d="M349.4 186.7c-3.2-106.8 38.4-154 125-155.6C560.8 29.4 615 75 626.1 134.8c11 59.7 4.7 138.4 26.7 179.2 22 40.9 36.1 72.3 73.9 119.5C764.5 480.7 788 528.7 799 587c11.1 58.1 17.3 85.6-11 115.6-28.3 29.8-78.5 78.6-116.3 23.5-19-27.6-21-61.8 11-69.1 20.4-4.8 35.1-3.2 50.3 4.7 15.3 7.9 18.9 4.2.6-9.4-18.4-13.6-22.1-1.1-15.8-23 6.3-22 14.6-61.5-2.6-104.9-8-20.1-35.1-75-60.5-88.5-2.3-1.3-8.9-4.1-4.4 1.6 6.8 8.5 43.5 62.4 53.8 94.5 11.1 34.5 12.7 67.5 6.9 88.3-5.7 21-15.8 29.4-27.8 29.4s-23 5.7-23-22c0-27.8 2.9-69.7-12.1-105.2-14.9-35.3-33.1-59.7-37-74.6-3.8-14.9-12.5-55-30.6-77.8-18.1-22.8-26-37.7-16.6-63.7 9.4-25.9 2.4-33-16.5-38.4-18.9-5.5-44.1-13.4-50.3-26-6.3-12.5-2.4-37.7 11.7-43.9 14.2-6.3 37.7 2.3 38.6 20.4.8 18-7.9 27.5-5.5 31.4 2.4 3.9 14.9 10.3 21.2 3.2 6.2-7.2 7.9-29.1 1.5-49.5-6.3-20.4-9.4-34.6-32.2-39.3-22.8-4.8-33.1-3.2-44 11-11 14.1-15.8 36.9-12.5 53.5 3.1 16.5-3.2 7-14.2 6.2-11-.7-7.9-1.6-18.9-.7-11 .7-7-6.3-7.9-18.1-.7-11.8-2.3-36.2-18.9-45.6-16.5-9.4-44.8 1.6-44.1 41 .8 39.3 14.2 58.1 22.1 43.9 7.9-14.1 3.9-7-3.9-13.4-7.9-6.2-13.4-32.2-4.8-40 8.7-7.9 18.9-7.9 24.5-3.2 5.5 4.8 14.1 20.5 12.5 30.7-1.6 10.3-2.4 11-12.5 18.1-10.3 7-14.2 13.4-26 21.1-11.8 7.9-16.5 26-7 30.7 9.4 4.8 10.3 3.9 18 15.8 7.9 11.8 21.2 17.3 54.3 11.8 33-5.5 46.6-13.4 71.5-22.1 18.1-6.2 11.8-5.5 18.1-12.5 6.2-7 16.5 3.1 7 9.4-9.4 6.3-30.7 12.5-46.4 18-15.6 5.6-33.8 21.3-66.7 19.7-33.1-1.6-10.3-.8-20.5-1.6-10.1-.8-14.9.7-3.9 8.6 11.1 7.9 10.3 10.3 19.7 13.4 9.4 3.2 22 3.2 37-2.3 14.9-5.6 52.7-22.1 64.5-30 11.7-7.9 21.1 2.4 9.4 10.3-11.8 7.9-15 5.5-26 12.5-11 7.2-31.4 18.9-44.8 31.5-13.4 12.5-16.5 13.4-33.1 14.1-16.5.8-26.7-16.5-33.8-24.3-7-7.9-6.3-12.5-14.9-22-8.6-9.4-9.4-7.2-11 3.1s-13.4 36.2-23.6 53.5c-10.1 17.3-11 38.6-9.4 53.5 1.6 14.9-2.4 16.5-14.1 33.8-11.8 17.3-31.5 68.4-34.6 84.9-3.1 16.5-7 50.4-5.5 70 1.6 19.7-3.9 23.6-18.1 10.3-14.1-13.4-18.9-28.3-18-48 .7-16.8 3-28.7 5.1-34.9s.1-10.5-4.4-2.9c-9.7 16.7-10.1 45.6-7.8 55.9 2.3 10.1 3.1 28.3 29 52.6 26 24.4 63.7 58.1 95.1 80.9 31.5 22.8 42.5 51.1-3.9 71.5 29.1 39.4 44.9 59.8 32.2 85.7 26-14.9 16-50.1 3.5-59.6-12.7-9.4-5-16.7 6-9.5 11 7 14.9 21.1 58.3 20.4 43.2-.8 89.8-5.1 115.8-43 25.9-37.7 30.9-6 24.6 16.1-6.2 22-21.7 71.6 2.6 67 3.1-29.1 10.3-54.3 10.3-85.7 0-31.5 3.1-46.7.7-92.3-2.4-43.9 16.6-46.9 36.2-46.9 19.7 0 13.4 12.7.8 11.8-12.7-.8-25.9 3.9-26.7 36.2-.8 32.2 0 29.1 5.5 58.1 5.5 29.1 6.3 37.7 1.6 70-4.7 32.2-8.6 49.5 12.7 69.2 21.1 19.7 53.4 14.1 70 1.5 16.5-12.5 47.9-41.7 76.2-51.1 28.4-9.4 58.3-16.5 74-32.2 15.6-15.8 11.7-26.7-4.8-35.3-16.5-8.7-32.2-4.8-44.8-18.9-12.7-14.2-18.9-45.6-14.2-62.2 4.8-16.5 10.3-9.4 10.3 2.4s.7 22.8 12.5 37.7c11.8 14.9 22.8 22.1 41.7 33.8 18.9 11.8 30.7 30.7 7 47.3-23.5 16.5-36.9 25.9-56.6 33.8-19.6 7.9-51.8 26.7-71.5 46.3-19.7 19.7-30.7 37-69.2 37-38.4 0-56.1-9.3-67.6-32.2-7.9-15.8-11.8-13.4-29.8-14.2-18.1-.7-78.7-1.6-125.8-.7-47.2.7-62.9 8.6-84.2 25.9-21.1 17.3-29 30.7-69.1 17.3s-61.4-28.3-121.1-40.1c-59.8-11.8-27.6-6.3-63.8-14.2-36.2-7.8-33.8-25.1-29-39.3 4.7-14.1 16.5-36.2 6.2-65.2-10.1-29.1-6.2-59 21.2-59 27.6 0 53.5 5.5 64.5-30.7s14.2-7.9 11 1.6c-3.1 9.4-4.7 35.3-29 39.3-24.4 3.9-29.8-1.6-44.9-1.6-14.9 0-21.1 10.3-13.4 27.6 7.9 17.3 16.6 35.3 15 50.3-1.7 14.9-3.2 20.4-14.2 34.6-11 14.1-9.4 21.3 10.3 25.9 19.6 4.8 55 14.2 88 22.1 33.1 7.8 35.5 7.8 92.8 22.8 57.4 14.9 73.2-11.8 77.8-44.1 4.8-32.2-17.3-62.9-37.7-93.6-20.4-30.7-42.4-66-69.1-98.2-26.7-32.2-42.5-34.6-55.9-27.6-13.4 7.2-15.8 5.6-16.5-12.5-.8-18-2.4-29.8 12.5-56.6 14.9-26.7 28.3-55.9 44.1-100.6 15.8-44.8 29.8-53.5 56.6-92 26.7-38.4 14.9-23.5 33.8-49.4 18.9-26 13.4-21.3 11.8-62.2-1.7-41.2-3.3-64.8-4.8-118.3zm-75.1 319.7c4.1 4.9 9.8-6.7 15.8-11.1 5.2-4.7 7.7-11.8 6.4-18.7-.6-3.7-6.6-2.5-7.8-1.2-3.7 3.7-2.9 9.7-5.5 14.8-2.9 6.2-13 11.2-8.9 16.2zm338-164.3c8.5 7.2 13.7 13.4 18.4 2.7 4.8-10.6 4.8-14.9-6.7-19.2-11.3-4.4-16.5-9.1-21.6-14.9-5.1-6-6.9 4.2-2.7 14.1 5 12.2 8 13.6 12.6 17.3zm-177.2-97.5c-5.9-1.2-12.9-.7-16.8 3.9-1.6 1.6-.8 6 1.9 7.2 3.6 1.6 6-2 6.7-4.8.4-1.2.8-2.7 2-3.1 1.6-.8 3.8-.1 5.5-.8 1.9-.7 1.2-2.4.7-2.4zm27.8 1.1c2.4 3.6 6.7 3.6 10.3 5.1 1.9.8 5.9 2 7-.7 2.7-8.7-9.1-6-14.6-6-1.1 0-3.9-.3-2.7 1.6zm57.3-38.1c5.4.2 12.7 9.8 13.4 20.9.1 1.7 4.7 1.5 5.6-.1 2.5-4.4.7-9.3-.5-14.6-1-4.3-6.1-8.7-10.4-10.6-2.9-1.4-5.9-1.9-9.7-1.4-.9.4-4.2 5.4 1.6 5.8zm-117.1-2.8c-4.9.4-3.1 4.2-2.9 7.3 6.8 3.8 7.4 12.4 8.8 19.2.1 2.6 4.1 1.4 4.4.6 3-5.5-.7-11.7-2-18.1-1.2-3.3-3.5-7.2-6.6-9.4-.4-.5-1.2.4-1.7.4zM553.3 84.4c-4.9-3.9-12.5-5.5-14.8 1-2.4 5.5-1.4 11.1-2.8 17.1 0 1.9-2.4 2.4-3.7 4.2-1.9 2.3-1.4 5.1-.5 6 4.5 4.7 12.9-4.5 19-7.8 4.5-2.9 11.1.8 16.1-2.4 1.4-1 1.9-3.2.5-5-3.2-5.7-8.8-8.9-13.8-13.1z" class="st2"/><path d="M694.9 709.5c.7-3.2 2.4-9.5 5.5-10.5 1.1-.4 2 .1 2.4 1.2.7 2-1.4 13.6-.6 16.2 1 2.7 4.2 2.4 6.4 1.7 5.4-1.8 8.5-8.1 8.2-8.7 0-.2-.1-.2-.4-.2-.8.2-1.6 3.2-3.9 3.9-1.5.5-2.7.2-3.2-1.3-.5-1.7 1.6-13.6.6-16.4-.8-2.7-3.6-3.5-6.2-2.6-5.9 1.9-8.4 10.9-9.9 16.1h-.1l.8-12.3-7.3 2.4-.4 25.4 6.8-2.3c.2-4.4.4-9.4 1.3-12.6zm31.5 2.7c5.8-1.9 8.5-8.8 8.2-9.7-.1-.2-.2-.4-.5-.4-.5.2-1.5 4.2-4.9 5.3-1.4.5-2.7.1-3.1-.8-.5-1.4-.1-3.9-.1-6.1l.2-11.5 8-2.6-.1-2.7-8 2.6.4-10.9-7.2 4.1-.4 24.2c0 2.6-.2 4.9.2 6.1 1.1 3.1 4.3 3.5 7.3 2.4z" class="st2"/></svg>