<svg xmlns="http://www.w3.org/2000/svg" xml:space="preserve" style="enable-background:new 0 0 1000 1000" viewBox="0 0 1000 1000"><path d="M11140.9 21175.6c3229.5-570.5 5896.9-1042.6 5927.6-1049.1l55.7-11.8-3049-3626.7c-1676.9-1994.7-3049-3634.4-3049-3643.9 0-17.9 3148.3-8687.7 3166-8718.6 5.9-10.3 2148.5 3688.7 5193.7 8966.7 2851 4941.3 5201.5 9015.5 5223.3 9053.7l39.7 69.4-9689.9-1.2-9689.9-1.2 5871.8-1037.3zm-11629-1106c0-5.1 1436.7-2499 3192.6-5542.1l3192.6-5532.8 3720.6-3122.3c2046.3-1717.3 3726.1-3124.4 3732.8-3127 6.7-2.6-20.2 65.2-59.8 150.6-39.6 85.4-1857.7 3984.8-4040 8665.5l-3968 8510.2-2885.4 3.6c-1586.9 2-2885.4-.6-2885.4-5.7z" style="fill:#0089d6" transform="translate(19.416 3.508) scale(.03978)"/></svg>