<svg xmlns="http://www.w3.org/2000/svg" xml:space="preserve" x="0" y="0" style="enable-background:new 0 0 1000 1000" version="1.1" viewBox="0 0 1000 1000"><style>.st0{fill-rule:evenodd;clip-rule:evenodd;fill:#00678c}</style><path d="M0 709h34V577l52 114c6 14 14 18 30 18s24-4 30-18l52-114v132h34V579c0-12-6-18-16-22-26-8-42-2-50 16l-50 112-48-112c-8-18-24-24-50-16-12 2-18 8-18 22v130zm258-106h34v72c0 4 2 14 20 14h72v-88h34v118c0 28-36 36-52 36H262v-22h104c22-2 18-12 18-16v-8h-70c-32 0-54-14-54-32-2-2-2-74-2-74zm712-84c-20 0-36 2-50 8-4 2-10 2-10 6 2 2 2 6 4 8 4 6 8 12 14 16s10 8 16 12c10 6 22 10 30 16l18 12c2 2 4 6 8 6-2-2-2-6-4-8l-8-8c-8-10-16-18-26-26-8-6-26-14-28-22 6 0 12-2 18-4 8-2 16-2 26-4 4-2 8-2 12-4v-2c-4-4-8-10-12-14-12-12-28-22-42-32-8-6-18-8-26-12-2-2-8-2-10-4-4-6-6-12-10-20-8-14-14-30-20-44-4-10-8-20-12-28-26-44-54-70-98-94-10-6-20-8-32-10-6 0-12 0-20-2-4-2-8-6-12-8-14-10-52-30-62-2-6 16 10 32 16 42 4 6 10 12 12 20 2 4 2 8 4 14 4 12 8 24 14 34 2 6 6 10 10 16 2 2 6 4 6 8-4 6-4 12-6 20-8 28-6 64 8 86 4 6 14 20 26 14 12-4 8-20 12-32 0-2 0-4 2-6 4 8 6 14 10 20 8 12 22 26 34 34 6 4 10 12 18 14l-6-6c-4-4-10-10-14-16-10-14-20-30-28-46-4-8-8-16-10-24-2-4-2-8-4-10-4 6-10 10-12 18-4 10-6 24-6 38h-2c-8-2-10-10-14-18-8-18-8-46-2-68 2-6 10-22 6-28-2-4-6-8-10-12s-6-10-10-16c-6-14-8-30-16-44-4-6-8-14-12-20s-10-12-14-20c-6-6-8-10-6-14 0-2 2-2 4-4 4-2 12 2 16 2 10 4 18 8 24 12 4 2 8 8 12 8h6c8 2 18 0 24 2 14 4 26 10 36 18 34 22 60 52 80 86 4 6 4 12 6 18 6 12 12 26 18 38s10 24 18 34c4 6 20 8 26 10 4 2 12 4 18 8 8 6 18 12 26 18 4 4 16 10 16 16z" class="st0"/><path d="M712 299c-4 0-8 0-10 2 2 4 6 6 8 10l6 12c4-2 6-6 6-12-2-4-2-4-2-6-2-4-6-4-8-6z" class="st0"/><path d="M440 709h96c12 0 22-2 30-6 14-6 22-16 22-28v-24c0-10-8-18-24-24-8-4-18-4-28-4h-40c-14 0-20-4-22-12v-20c2-6 6-8 16-10h98v-22h-94c-14 0-20 2-26 2-20 6-28 16-28 34v20c0 14 18 28 46 30h48c10 2 14 2 18 6 2 2 2 4 2 6v20c0 2-2 6-4 8s-8 4-14 4h-96v20zm354-38c0 22 16 36 52 38h96v-22h-86c-20 0-26-4-26-16V557h-34l-2 114zm-184 0v-78c0-20 14-32 42-36h80c28 4 42 16 42 36v78c0 16-6 24-20 30l32 30h-38l-26-24-26 2h-36c-6 0-12 0-20-2-20-6-30-18-30-36zm36-2v4c2 10 10 14 24 14h30l-28-24h38l24 22c4-2 8-6 8-10v-82c-2-8-10-14-24-14h-50c-14 0-24 6-24 16l2 74zm310 40h4v-18h6v-4h-18v4h6l2 18zm38 0h4v-22h-6l-6 14-6-14h-6v22h4v-16l6 16h4l6-16v16z" style="fill-rule:evenodd;clip-rule:evenodd;fill:#ce8b2c"/></svg>