<svg xmlns="http://www.w3.org/2000/svg" xml:space="preserve" style="enable-background:new 0 0 1000 1000" viewBox="0 0 1000 1000"><path d="M586.6 13.5c-7.8 0-13.7 2-19.5 3.9 13.7 7.8 19.5 19.5 23.4 33.2 0 2 0 3.9 2 3.9v3.9c2 21.5-5.9 25.4-9.8 39.1-7.8 17.6-5.9 35.2 3.9 50.8 0 2 2 3.9 3.9 5.9-9.8-64.5 43-74.2 52.7-93.8 0-17.6-13.7-29.3-25.4-37.1-11.6-7.9-21.4-9.8-31.2-9.8zm80.1 13.6c-2 5.9 0 3.9 0 7.8v5.9c0 2-2 3.9-2 5.9s-2 3.9-2 5.9c-2 2-2 3.9-2 5.9 0 2-2 2-2 3.9l-2 2c-2 2-2 3.9-3.9 5.9-2 2-2 3.9-3.9 3.9-2 2-3.9 2-3.9 3.9-5.9 3.9-11.7 7.8-17.6 11.7-2 2-3.9 2-5.9 3.9-2 2-3.9 2-3.9 3.9l-3.9 3.9c-2 2-2 3.9-3.9 5.9-2 2-2 3.9-3.9 5.9-2 2-2 3.9-2 5.9 0 2-2 3.9-2 5.9-2 2-3.9 3.9-3.9 5.9v23.5c0 2 0 3.9 2 5.9 0 2 2 3.9 2 5.9 0 2 2 2 2 3.9l-58.6-23.4c-9.8-2-19.5-5.9-29.3-7.8l-15.6-2c-15.6-3.9-31.3-5.9-44.9-5.9h-2c-15.6-2-29.3-2-44.9-2-11.7 0-21.5 0-33.2 2-15.6-2-31.3 0-46.9 3.9-3.9 0-7.8 2-11.7 2-7.8 2-15.6 3.9-23.4 5.9l-11.7 3.9c-3.9 2-7.8 3.9-11.7 3.9l-7.8 3.9h-2c-2 2-3.9 2-7.8 3.9h-2c-2 2-5.9 2-7.8 3.9-2 0-3.9 2-5.9 2l-2 2c-2 2-3.9 2-5.9 3.9l-3.9 3.9c-2 2-3.9 2-5.9 3.9-2 2-3.9 2-3.9 3.9l-3.9 3.9s-2 0-2 2c-2-2-2 0-3.9 0l-2 2c0 2-2 2-3.9 3.9-2 2-3.9 3.9-3.9 5.9-2 2-3.9 2-5.9 3.9l-2 2c0 2-2 2-3.9 3.9l-2 2-5.9 5.9c-3.9 3.9-7.8 7.8-13.7 11.7-3.9 3.9-9.8 7.8-13.7 11.7-5.9 3.9-9.8 5.9-15.6 9.8-5.9 2-9.8 5.9-15.6 7.8-5.9 2-11.7 3.9-15.6 5.9-9.8 2-21.5 5.9-31.3 7.8h-5.9c-2 0-3.9 2-5.9 2l-5.9 2c-2 0-3.9 2-5.9 2-2 2-3.9 2-5.9 3.9-2 2-3.9 2-5.9 3.9 0 2-2 3.9-3.9 5.9-2 2-3.9 3.9-3.9 5.9-2 2-2 3.9-3.9 5.9s-2 3.9-3.9 5.9-2 3.9-2 5.9c0 2-2 3.9-2 5.9s-2 3.9-2 5.9V342.9c-2 3.9-2 3.9 0 5.9 0 2 2 3.9 2 3.9 0 2 2 3.9 2 3.9 2 2 2 3.9 3.9 3.9 0 3.9 2 5.9 3.9 5.9 2 2 3.9 2 3.9 3.9 5.9 5.9 7.8 7.8 15.6 11.7 2 0 2 2 3.9 2v2c0 2 0 3.9 2 5.9 0 2 2 3.9 2 5.9 0 2 2 3.9 2 3.9v2c2 2 2 3.9 3.9 5.9l3.9 5.9c2 2 2 3.9 3.9 3.9 2 2 3.9 2 3.9 3.9 2 2 3.9 2 3.9 3.9 2 2 3.9 2 5.9 3.9 2 2 3.9 2 5.9 2s3.9 2 5.9 2h5.9c0 13.7-2 27.3 2 31.3 2 5.9 13.7-9.8 25.4-27.3-2 17.6-2 37.1 0 44.9 2 5.9 17.6-13.7 31.3-35.2 179.7-41 341.8 82 359.4 257.8-3.9-27.3-37.1-43-52.7-39.1-7.8 19.5-19.5 43-41 58.6 2-17.6 0-33.2-2-50.8-7.8 23.4-17.6 44.9-33.2 62.5-23.4 2-48.8-9.8-60.5-27.3-2 0-2-2-2-3.9 0-2-2-3.9-2-5.9 0-2-2-3.9-2-5.9V685c0-2 0-3.9 2-5.9 0-2 2-3.9 2-5.9 2-2 2-3.9 3.9-5.9 3.9-11.7 3.9-21.5-3.9-27.3-2-2-3.9-2-3.9-2-2 0-2 0-3.9-2h-2c-2 0-3.9-2-5.9-2h-21.6c-2 0-3.9 0-5.9 2-2 0-3.9 2-5.9 2s-3.9 2-5.9 2-3.9 2-3.9 2c-58.6 39.1-23.4 128.9 15.6 154.3-15.6 2-31.3 5.9-35.2 9.8 11.7 5.9 21.5 11.7 33.2 17.6 15.6 5.9 33.2 9.8 41 11.7 21.5 3.9 43 5.9 64.5 3.9 111.3-7.8 203.1-93.8 220.7-205.1 0 2 2 3.9 2 5.9 0 3.9 2 9.8 2 13.7 0 2 0 3.9 2 5.9V724.4c0 2 0 3.9-2 7.8 0 2-2 3.9-2 7.8l-2 7.8v2c0 2-2 3.9-2 5.9 0 2-2 3.9-2 7.8l-2 7.8c-2 0-2 3.9-3.9 5.9-2 2-2 5.9-2 7.8-2 2-2 3.9-3.9 7.8-2 2-2 3.9-3.9 7.8v2c-15.6 33.2-41 62.5-70.3 85.9-2 2-3.9 2-5.9 3.9 0 0-2 0-2 2-2 2-3.9 2-5.9 3.9v2l9.8-2c5.9-2 13.7-2 19.5-3.9 2 0 3.9 0 5.9-2h3.9c2 0 3.9 0 5.9-2 2 0 3.9 0 3.9-2 25.4-5.9 48.8-13.7 72.3-23.4-41 54.7-93.8 99.6-156.3 128.9 29.3-2 58.6-5.9 85.9-15.6C655 947.1 741 876.8 791.7 785c-9.8 58.6-33.2 113.3-68.4 162.1 25.4-15.6 46.9-35.2 66.4-56.6 56.6-58.6 93.8-134.8 105.5-214.9 7.8 41 11.7 82 7.8 121.1 185.6-253.9 19.5-519.6-50.8-587.9v-2 9.8c0 5.9-2 11.7-2 17.6-2 5.9-2 11.7-3.9 17.6-2 5.9-3.9 11.7-5.9 15.6-2 5.9-3.9 9.8-7.8 15.6-2 3.9-5.9 9.8-9.8 13.7-3.9 3.9-5.9 9.8-9.8 13.7l-11.7 11.7c-2 2-3.9 3.9-7.8 5.9l-5.9 5.9c-3.9 3.9-9.8 7.8-13.7 9.8-3.9 3.9-9.8 5.9-15.6 7.8-5.9 2-9.8 3.9-15.6 7.8-5.9 2-11.7 3.9-15.6 5.9-5.9 2-11.7 2-17.6 3.9-5.9 2-11.7 2-17.6 2h-11.7c-5.9 0-11.7 0-17.6-2-5.9 0-11.7-2-17.6-2-5.9-2-11.7-2-17.6-3.9 5.9 0 11.7-2 17.6-2 5.9-2 11.7-2 17.6-3.9 5.9-2 11.7-3.9 15.6-5.9 5.9-2 11.7-3.9 15.6-7.8 5.9-2 9.8-5.9 15.6-7.8 3.9-3.9 9.8-5.9 13.7-9.8s9.8-7.8 13.7-11.7l11.7-11.7c3.9-3.9 7.8-9.8 9.8-13.7l2-2c2-3.9 5.9-7.8 7.8-11.7 2-5.9 5.9-9.8 7.8-15.6 2-5.9 3.9-9.8 5.9-15.6 2-5.9 3.9-11.7 3.9-15.6 2-5.9 2-11.7 2-17.6 0-5.9 2-11.7 2-17.6v-11.7c0-5.9-2-11.7-2-17.6-2-5.9-2-11.7-3.9-17.6-2-5.9-3.9-11.7-5.9-15.6-2-3.9-3.9-9.8-7.8-15.6-2-5.9-5.9-9.8-7.8-15.6-3.9-3.9-5.9-9.8-9.8-13.7s-7.8-7.8-11.7-13.7l-5.9-5.9c-11.7-9.8-23.4-17.6-35.2-25.4-2-2-3.9-2-5.9-2-11.4-5.8-19.3-7.8-27.1-11.7z" style="fill-rule:evenodd;clip-rule:evenodd;fill:#e0234e"/></svg>