<svg xmlns="http://www.w3.org/2000/svg" xml:space="preserve" style="enable-background:new 0 0 1000 1000" viewBox="0 0 1000 1000"><path d="M237.4 356.9h185.9v13.8H253.2v110.8h160.2v15.8H253.2V620h172.1v13.8H237.4V356.9zm203.8 0H461l87 122.6 89-122.6 122.6-156.3-199.8 290.9 102.9 142.4h-19.8L548 503.3l-95 130.6h-19.8L538 491.5l-96.8-134.6zm229.4 13.9V357h211.6v13.8h-98.9v263.1h-17.8V370.8h-94.9zM4 356.9h21.8L320.5 796 197.9 633.9l-176-257.1v257.1H4v-277zm876.3 257.2c-4 0-5.9-2-5.9-5.9 0-4 2-5.9 5.9-5.9 4 0 5.9 2 5.9 5.9 2 3.9-2 5.9-5.9 5.9zm17.8-15.8h9.9c0 5.9 4 7.9 9.9 7.9s9.9-4 9.9-9.9v-41.5h9.9v41.5c0 11.9-7.9 19.8-17.8 19.8-13.9 0-21.8-7.9-21.8-17.8zm49.4 0h9.9c0 5.9 5.9 9.9 13.8 9.9s13.8-4 13.8-9.9c0-4-4-7.9-11.9-9.9l-7.9-2c-9.9-2-15.8-7.9-15.8-15.8 0-9.9 7.9-17.8 21.8-17.8 11.9 0 21.8 7.9 21.8 17.8h-9.9c0-5.9-5.9-9.9-11.9-9.9-7.9 0-11.9 4-11.9 9.9 0 4 4 5.9 11.9 7.9l5.9 2c11.9 2 17.8 7.9 17.8 17.8 0 11.9-7.9 17.8-23.7 17.8-13.8 0-23.7-7.9-23.7-17.8z"/></svg>