<svg xmlns="http://www.w3.org/2000/svg" xml:space="preserve" style="enable-background:new 0 0 500 500" viewBox="0 0 500 500"><style>.st0{display:none}.st2{display:inline;fill:#fdbd39}.st3{fill:#f69833}.st3,.st6{display:inline}.st7{fill:#ee6723}.st11,.st9{fill:#fff}.st11{display:inline}.st19{fill:#ea6c00}.st19,.st20,.st21,.st24{fill-rule:evenodd;clip-rule:evenodd}.st20{fill:#fdad00}.st21{fill:#fdd231}.st24{fill:#fff}.st45{fill:#ff3c00}.st46{fill:#8ab4f8}.st73{display:inline;fill:#ff2bc2}.st79{fill:#99f}</style><g id="Layer_9"><path d="M182.83 19.89C107.69 25.45 43.81 30.57 40.81 31.16c-8.42 1.5-16.08 7.21-19.68 14.73l-3.16 6.62.3 157.66.45 157.66 4.81 9.77c2.71 5.41 21.04 30.66 41.03 56.66 39.53 51.25 42.38 54.11 57.41 55.61 4.36.45 37.13-1.05 72.6-3.16 35.62-2.25 92.73-5.71 127-7.66 146.38-8.89 138.86-8.14 147.27-15.35 10.52-8.72 9.77 5.56 10.22-186.06.3-162.47.15-173.14-2.25-178.1-2.85-5.56-7.96-9.47-74.7-56.36-44.63-31.26-47.79-32.91-67.79-33.22-8.26-.29-76.49 4.22-151.49 9.93zm168.93 20.59c6.31 2.85 52.46 35.02 59.21 41.18 1.81 1.81 2.4 3.31 1.5 4.21-2.1 1.81-287.67 18.79-295.93 17.58-3.75-.6-9.31-2.85-12.47-4.96C91 89.63 58.54 63.02 58.54 61.07c0-5.11-1.06-5.11 126.25-14.28 24.35-1.65 64.33-4.66 88.68-6.62 52.74-4.2 68.53-4.04 78.29.31zm90.78 82.21c2.1 2.1 3.91 6.16 4.51 10.07.45 3.61.75 70.94.45 149.39-.45 134.66-.6 143.08-3.16 146.99-1.5 2.4-4.51 4.96-6.77 5.71-6.3 2.56-305.54 19.54-311.69 17.74-2.85-.75-6.77-3.16-8.87-5.26l-3.61-3.91-.45-145.18c-.3-101.9 0-146.99 1.21-151.05.9-3 3.16-6.62 5.11-7.81 2.71-1.81 20.44-3.31 81.46-6.91 42.84-2.4 109.11-6.46 147.14-8.72 90.46-5.56 90.16-5.56 94.67-1.06z"/><path d="M362.13 172.44c-16.23 1.06-30.66 2.56-32.32 3.46-4.96 2.56-7.96 6.77-8.56 11.58-.45 4.96 1.06 5.56 17.28 7.52l7.06.9v64.18c0 38.17-.6 63.42-1.35 62.67-.75-.9-22.09-33.36-47.49-72.14-25.4-38.92-46.44-70.94-46.74-71.24-.3-.3-16.83.6-36.67 1.96-24.35 1.65-37.72 3.16-40.43 4.66-4.36 2.25-9.17 10.22-9.17 15.48 0 3.16 5.71 4.81 17.74 4.81h6.31v184.56L177.57 394c-7.96 2.4-10.67 3.91-12.02 6.91-2.4 5.11-2.25 9.77.15 9.77.9 0 17.89-1.05 37.42-2.25 38.63-2.25 42.98-3.31 47.04-11.27 1.21-2.4 2.25-4.96 2.25-5.71 0-.6-5.26-2.4-11.58-3.91-6.46-1.5-12.93-3-14.28-3.31-2.56-.75-2.71-5.41-2.71-70.04V244.9l45.69 71.69c47.94 75.14 53.96 83.72 61.32 87.47 9.17 4.81 32.47 1.5 44.19-6.16l3.61-2.25.3-102.5.45-102.65 7.96-1.5c9.47-1.81 13.83-6.16 13.83-13.68 0-4.81-.3-5.11-4.81-4.96-2.69.12-18.17 1.03-34.25 2.08z"/></g></svg>