<svg xmlns="http://www.w3.org/2000/svg" xmlns:xlink="http://www.w3.org/1999/xlink" xml:space="preserve" x="0" y="0" style="enable-background:new 0 0 1000 1000" version="1.1" viewBox="0 0 1000 1000"><style>.st5{fill:#fff}</style><g id="g3438" transform="matrix(1.25 0 0 -1.25 -4.4 394.299)"><g id="g3440"><defs><path id="SVGID_1_" d="M7-82.5c0-114.9 176.3-208 396.2-208 217.9 0 396.2 93.1 396.2 208s-176.3 208-396.2 208C183.3 125.5 7 32.4 7-82.5"/></defs><clipPath id="SVGID_2_"><use xlink:href="#SVGID_1_" style="overflow:visible"/></clipPath><g id="g3442" style="clip-path:url(#SVGID_2_)"><g id="g3448"><g id="g3450"><radialGradient id="path3462_1_" cx="7.889" cy="-265.294" r="1.431" gradientTransform="matrix(567.278 0 0 -567.278 -4232.034 -150442.594)" gradientUnits="userSpaceOnUse"><stop offset="0" style="stop-color:#aeb2d5"/><stop offset=".3" style="stop-color:#aeb2d5"/><stop offset=".75" style="stop-color:#484c89"/><stop offset="1" style="stop-color:#484c89"/></radialGradient><path id="path3462" d="M7-82.5c0-114.9 176.3-208 396.2-208 217.9 0 396.2 93.1 396.2 208s-176.3 208-396.2 208C183.3 125.5 7 32.4 7-82.5" style="fill:url(#path3462_1_)"/></g></g></g></g><g id="g3464"><defs><path id="SVGID_3_" d="M-242.6-444.1H1045v723H-242.6z"/></defs><clipPath id="SVGID_4_"><use xlink:href="#SVGID_3_" style="overflow:visible"/></clipPath><g id="g3466" style="clip-path:url(#SVGID_4_)"><g id="g3472" transform="translate(288 27.36)"><path id="path3474" d="M113.2-302.9c210 0 380.3 87.2 380.3 192.2 0 107-170.4 192.2-380.3 192.2-210 0-380.3-87.2-380.3-192.2s170.4-192.2 380.3-192.2" style="fill:#777bb3"/></g></g></g><g id="g3476"><defs><path id="SVGID_5_" d="M-242.6-444.1H1045v723H-242.6z"/></defs><clipPath id="SVGID_6_"><use xlink:href="#SVGID_5_" style="overflow:visible"/></clipPath><g id="g3478" style="clip-path:url(#SVGID_6_)"><g id="g3484" transform="translate(161.734 145.307)"><path id="path3486" d="M59.9-251.5c17.8 0 29.7 4 37.6 9.9s13.9 17.8 15.8 31.7c2 13.9 2 23.8-4 29.7-4 5.9-15.8 7.9-31.7 7.9H50l-15.8-79.2h25.7zm-91.1-97.1c-2 0-2 0-4 2 0 0-2 2 0 4l39.6 208c0 2 2 4 4 4h87.2c27.7 0 47.5-7.9 61.4-21.8 13.9-13.9 17.8-35.7 11.9-61.4-2-9.9-5.9-19.8-9.9-29.7-4-7.9-11.9-17.8-19.8-23.8-9.9-7.9-19.8-15.8-31.7-19.8-11.9-4-25.8-5.9-43.6-5.9H28.2l-9.9-51.5c0-2-2-4-4-4l-45.5-.1z"/></g><g id="g3488" transform="translate(159.224 197.307)"><path id="path3490" d="M58.2-228.2H82c19.8 0 25.8-4 27.7-5.9 4-4 4-13.9 2-25.8-2-13.9-7.9-23.8-15.8-29.7-7.9-5.9-19.8-7.9-35.7-7.9H42.4l15.8 69.3zm41.6 49.5H12.7c-4 0-7.9-2-7.9-7.9l-39.6-208c0-2 0-5.9 2-7.9s4-4 5.9-4h45.6c4 0 7.9 2 7.9 7.9l9.9 47.5h31.7c17.8 0 33.7 2 45.6 5.9 11.9 4 23.8 9.9 33.7 19.8 7.9 7.9 15.8 15.8 19.8 25.8 5.9 9.9 7.9 19.8 11.9 29.7 5.9 27.7 2 49.5-11.9 65.4-17.9 17.9-39.7 25.8-67.5 25.8M34.5-307.4h27.7c17.8 0 31.7 4 41.6 9.9 9.9 5.9 15.8 17.8 17.8 33.7 4 15.8 2 25.8-4 33.7-5.9 5.9-17.8 9.9-33.7 9.9H52.3l-17.8-87.2m65.3 120.8c25.8 0 45.6-5.9 57.4-19.8 11.9-13.9 15.8-33.7 9.9-57.4-2-9.9-5.9-19.8-9.9-27.7-4-7.9-9.9-15.8-17.8-23.8-9.9-7.9-19.8-13.9-29.7-17.8-11.9-4-25.8-5.9-41.6-5.9H28.5l-9.9-55.5H-27l39.6 208 87.2-.1" class="st5"/></g><g id="g3492" transform="translate(311.583 116.307)"><path id="path3494" d="M123-264.1c-2 0-2 0-4 2 0 0-2 2 0 4l17.8 93.1c2 7.9 2 15.8-2 17.8-2 2-5.9 4-19.8 4H83.4L61.6-260.1c0-2-2-4-4-4H12.1c-2 0-2 0-4 2 0 0-2 2 0 4l39.6 208c0 2 2 4 4 4h45.6c2 0 2 0 4-2 0 0 2-2 0-4l-9.9-49.5H127c25.8 0 45.6-4 55.5-13.9s13.9-25.8 9.9-47.5l-19.8-97.1c0-2-2-4-4-4H123z"/></g><g id="g3496" transform="translate(293.661 271.057)"><path id="path3498" d="M116.7-198H71.1c-4 0-7.9-2-7.9-7.9l-39.6-208c0-2 0-5.9 2-7.9s4-4 5.9-4h45.6c4 0 7.9 2 7.9 7.9L106.8-305h29.7c13.9 0 15.8-2 15.8-4 0 0 2-4 0-13.9L134.5-416c0-2 0-5.9 2-7.9s4-4 5.9-4H188c4 0 7.9 2 7.9 7.9l19.8 97.1c4 21.8 0 39.6-11.9 51.5-11.9 9.9-29.7 15.8-57.4 15.8h-29.7l7.9 45.6c0 2 0 5.9-2 7.9-1.9 4.1-3.9 4.1-5.9 4.1m0-7.9-9.9-55.5h39.6c25.8 0 43.6-4 51.5-13.9 9.9-7.9 11.9-23.8 7.9-43.6l-19.8-97h-45.6l17.8 93.1c2 9.9 2 17.8-2 21.8s-11.9 5.9-21.8 5.9H98.9L75.1-413.9H29.5l39.6 208h47.6" class="st5"/></g><g id="g3500" transform="translate(409.55 145.307)"><path id="path3502" d="M165-251.5c17.8 0 29.7 4 37.6 9.9s13.9 17.8 15.8 31.7c2 13.9 2 23.8-4 29.7-4 5.9-15.8 7.9-31.7 7.9H155l-15.8-79.2H165zm-89.1-97.1c-2 0-2 0-4 2 0 0-2 2 0 4l39.6 208c0 2 2 4 4 4h87.2c27.7 0 47.5-7.9 61.4-21.8 13.9-13.9 17.8-35.7 11.9-61.4-2-9.9-5.9-19.8-9.9-29.7-4-7.9-11.9-17.8-19.8-23.8-9.9-7.9-19.8-15.8-31.7-19.8-11.9-4-25.8-5.9-43.6-5.9h-35.7l-9.9-51.5c0-2-2-4-4-4l-45.5-.1z"/></g><g id="g3504" transform="translate(407.04 197.307)"><path id="path3506" d="M165.3-228.2h23.8c19.8 0 25.8-4 27.7-5.9 4-4 4-13.9 2-25.8-2-13.9-7.9-23.8-15.8-29.7-7.9-5.9-19.8-7.9-35.7-7.9h-17.8l15.8 69.3zm41.6 49.5h-87.2c-4 0-7.9-2-7.9-7.9l-39.6-208c0-2 0-5.9 2-7.9s4-4 5.9-4h45.6c4 0 7.9 2 7.9 7.9l9.9 47.5h31.7c17.8 0 33.7 2 45.6 5.9 11.9 4 23.8 9.9 33.7 19.8 7.9 7.9 15.8 15.8 19.8 25.8 5.9 9.9 7.9 19.8 11.9 29.7 5.9 27.7 2 49.5-11.9 65.4-17.8 17.9-39.6 25.8-67.4 25.8m-65.3-128.7h27.7c17.8 0 31.7 4 41.6 9.9 9.9 5.9 15.8 17.8 17.8 33.7 4 15.8 2 25.8-4 33.7-5.9 5.9-17.8 9.9-33.7 9.9h-31.7l-17.7-87.2m65.3 120.8c25.8 0 45.6-5.9 57.4-19.8 11.9-13.9 15.8-33.7 9.9-57.4-2-9.9-5.9-19.8-9.9-27.7-4-7.9-9.9-15.8-17.8-23.8-9.9-7.9-19.8-13.9-29.7-17.8-11.9-4-25.8-5.9-41.6-5.9h-39.6l-9.9-55.5H80.1l39.6 208 87.2-.1" class="st5"/></g></g></g></g></svg>