<svg xmlns="http://www.w3.org/2000/svg" xml:space="preserve" style="enable-background:new 0 0 1000 1000" viewBox="0 0 1000 1000"><path d="M499.6 17.1c-266.5 0-482.5 216-482.5 482.5C17.1 766 233.2 982 499.6 982s482.5-216 482.5-482.5c0-266.4-216-482.4-482.5-482.4zm0 903c-75.8 0-137.3-50.6-137.3-113.1h274.5c.1 62.4-61.4 113.1-137.2 113.1zm226.8-150.6H272.9v-82.2h453.5v82.2zm-1.7-124.6H274.2c-1.5-1.7-3-3.4-4.5-5.2-46.4-56.4-57.4-85.8-68-115.8-.2-1 56.3 11.5 96.3 20.5 0 0 20.6 4.8 50.7 10.3-28.9-33.9-46.1-77-46.1-121.1 0-96.7 74.2-181.2 47.4-249.5 26 2.1 53.9 55 55.8 137.6 27.7-38.3 39.3-108.1 39.3-151 0-44.4 29.2-95.9 58.5-97.6-26.1 43 6.8 79.8 35.9 171.1 10.9 34.3 9.5 92.1 18 128.7 2.8-76.1 15.9-187 64.1-225.3-21.3 48.3 3.2 108.6 19.9 137.6 27 46.8 43.3 82.3 43.3 149.4 0 45-16.6 87.3-44.6 120.5 31.9-6 53.9-11.4 53.9-11.4l103.5-20.2c-.1.1-15.1 61.9-72.9 121.4z" style="fill:#e6522c"/></svg>