<svg xmlns="http://www.w3.org/2000/svg" xml:space="preserve" style="enable-background:new 0 0 1000 1000" viewBox="0 0 1000 1000"><linearGradient id="a" x1="-8.823" x2="952.413" y1="1015.046" y2="1842.06" gradientTransform="matrix(.5625 0 0 .568 -8.525 -542.907)" gradientUnits="userSpaceOnUse"><stop offset="0" style="stop-color:#5a9fd4"/><stop offset="1" style="stop-color:#306998"/></linearGradient><path d="M494.5 9.5c-41.2 0-78.5 3.9-113.9 9.8-100.2 17.6-117.8 55-117.8 121.7v88.4h237.6v29.5h-326c-68.7 0-129.6 41.2-147.3 117.8-21.6 88.3-23.5 145.2 0 237.5C44.8 682.9 84.1 732 152.8 732h80.5V626c0-76.6 66.8-145.3 147.3-145.3h235.6c66.8 0 117.8-53 117.8-119.8V141c0-62.8-55-111.9-117.8-121.7-39.3-7.9-80.5-9.8-121.7-9.8zM366.8 82.1c23.6 0 45.2 19.6 45.2 45.2s-19.6 45.2-45.2 45.2c-25.5 0-45.2-19.6-45.2-45.2.1-25.6 19.7-45.2 45.2-45.2z" style="fill:url(#a)"/><linearGradient id="b" x1="1321.457" x2="979.918" y1="2337.177" y2="1853.959" gradientTransform="matrix(.5625 0 0 .568 -8.525 -542.907)" gradientUnits="userSpaceOnUse"><stop offset="0" style="stop-color:#ffd43b"/><stop offset="1" style="stop-color:#ffe873"/></linearGradient><path d="M765.4 258.8v104.1c0 80.5-68.7 149.2-147.3 149.2H382.5c-64.8 0-117.8 55-117.8 119.8v221.9c0 62.8 55 100.1 117.8 119.8 74.6 21.6 147.3 25.5 235.6 0 59-17.7 117.9-51.1 117.9-119.8v-88.4H500.3v-29.5h353.5c68.7 0 94.2-47.1 117.8-117.8 25.5-72.6 23.6-143.3 0-237.6-17.7-68.7-49.1-117.8-117.8-117.8h-88.4v-3.9zM631.9 824.3c25.5 0 45.2 19.6 45.2 45.2 0 25.5-19.6 45.2-45.2 45.2-23.6 0-45.2-19.6-45.2-45.2 2-25.6 21.6-45.2 45.2-45.2z" style="fill:url(#b)"/></svg>