<svg xmlns="http://www.w3.org/2000/svg" xml:space="preserve" x="0" y="0" style="enable-background:new 0 0 1000 1000" version="1.1" viewBox="0 0 1000 1000"><style>.st0{fill:#912626}.st1{fill:#c6302b}</style><path d="M959.9 734.9c-53.3 27.8-329.2 141.2-388 171.8-58.7 30.6-91.4 30.3-137.8 8.1C387.7 892.6 94 774 41.1 748.7 14.7 736.1.8 725.4.8 715.3V614.5s382.3-83.2 444-105.4c61.7-22.1 83.1-22.9 135.6-3.7s366.6 75.9 418.5 94.9v99.5c.1 10-11.9 20.9-39 35.1" class="st0"/><path d="M959.9 634.6C906.6 662.4 630.7 775.8 572 806.4c-58.7 30.6-91.4 30.3-137.8 8.1-46.4-22.2-340-140.8-392.9-166.1-52.9-25.3-54-42.7-2-63 52-20.4 344-134.9 405.7-157.1 61.7-22.1 83.1-22.9 135.6-3.7S907.4 553 959.3 572c51.8 19.1 53.8 34.8.6 62.6" class="st1"/><path d="M959.9 571.6c-53.3 27.8-329.2 141.2-388 171.9-58.7 30.6-91.4 30.3-137.8 8.1-46.4-22.2-340.1-140.8-393-166.1C14.7 572.9.8 562.2.8 552.1V451.3s382.3-83.2 444-105.4c61.7-22.1 83.1-22.9 135.6-3.7s366.6 75.9 418.5 94.9v99.5c.1 9.9-11.9 20.9-39 35" class="st0"/><path d="M959.9 471.3C906.6 499.1 630.7 612.5 572 643.1c-58.7 30.6-91.4 30.3-137.8 8.1-46.4-22.2-340-140.8-392.9-166.1-52.9-25.3-54-42.7-2-63 52-20.3 344-134.9 405.7-157.1 61.7-22.1 83.1-22.9 135.6-3.7s326.8 128.4 378.7 147.4c51.8 19.2 53.8 34.9.6 62.6" class="st1"/><path d="M959.9 402.3c-53.3 27.8-329.2 141.2-388 171.9-58.7 30.6-91.4 30.3-137.8 8.1-46.4-22.2-340.1-140.8-393-166.1C14.7 403.6.8 392.9.8 382.8V282s382.3-83.2 444-105.4c61.7-22.1 83.1-22.9 135.6-3.7s366.6 75.9 418.5 94.9v99.5c.1 9.9-11.9 20.9-39 35" class="st0"/><path d="M959.9 302C906.6 329.8 630.7 443.2 572 473.8c-58.7 30.6-91.4 30.3-137.8 8.1-46.4-22.2-340-140.8-392.9-166.1-52.9-25.3-54-42.7-2-63 52-20.3 344-134.9 405.7-157.1 61.7-22.1 83.1-22.9 135.6-3.7s326.8 128.4 378.7 147.4c51.8 19.2 53.8 34.9.6 62.6" class="st1"/><path d="m621.9 203.9-85.8 8.9-19.2 46.2-31-51.6-99.1-8.9 73.9-26.7-22.2-40.9 69.2 27.1 65.3-21.4-17.6 42.4 66.5 24.9M511.8 428.1l-160.2-66.4 229.5-35.2-69.3 101.6M289.7 229.6c67.7 0 122.7 21.3 122.7 47.5 0 26.3-54.9 47.5-122.7 47.5S167 303.4 167 277.1c0-26.2 55-47.5 122.7-47.5" style="fill:#fff"/><path d="m723.3 216.5 135.8 53.7-135.7 53.6-.1-107.3" style="fill:#621b1c"/><path d="m573.1 276 150.3-59.4.1 107.3-14.7 5.8L573.1 276" style="fill:#9a2928"/></svg>