<svg xmlns="http://www.w3.org/2000/svg" xml:space="preserve" style="enable-background:new 0 0 1000 1000" viewBox="0 0 1000 1000"><path d="M884.3 26.2c2.3-.1 4.5 1 5.7 3.1 1.2 2 1.1 4.5-.2 6.5L654.5 355.3c-1.7 1.9-4.2 3.1-6.8 3.1s-5.1-1.1-6.8-3.1L558 262.8c-2-2.1-4.9-3.2-7.8-2.9s-5.5 1.8-7.2 4.3l-50.3 63.9c-1.6 3.6-1.1 7.8 1.4 10.9l149.6 155c1.7 1.9 4.2 3.1 6.8 3.1 2.6 0 5.1-1.1 6.8-3.1L951 163.6c1.7-1.9 4.4-2.5 6.8-1.6 2.4.9 4 3.1 4.1 5.7v803.5c.1 1.8-.6 3.6-1.9 4.9-1.3 1.3-3.1 2-4.9 1.9H60.4c-1.8.1-3.6-.6-4.9-1.9-1.3-1.3-2-3.1-1.9-4.9V33c-.1-1.8.6-3.6 1.9-4.9 1.3-1.3 3.1-2 4.9-1.9h823.9zM653.2 568.7c-40.5-.7-79.5 15.1-108 43.9s-44 67.9-42.9 108.4c0 93.8 68 153.6 156.4 153.6 40.9 1 81-11.4 114.2-35.4 3.1-2.8 3.7-7.4 1.4-10.9l-24.5-36.7c-2.8-3.2-7.4-3.7-10.9-1.4-21.3 14.5-46.3 22.6-72.1 23.1-47.6 0-77.5-29.9-82.9-65.3.1-1.5 1.3-2.6 2.7-2.7h205.3c4.4-.3 7.9-3.8 8.2-8.2v-8.2c-.1-94.9-59.9-160.2-146.9-160.2zm-202.6-51.6c-41.3-33.8-93.5-51.2-146.8-48.9-92.5 0-149.6 54.4-149.6 119.6 0 148.2 225.7 100.6 225.7 170 0 21.8-21.8 43.5-68 43.5-43.9.3-86.2-16.3-118.3-46.3-1.9-1.8-4.5-2.7-7.1-2.4-2.6.3-5 1.6-6.5 3.8l-35.4 48.9c-2.3 3.5-1.7 8.1 1.4 10.9 36.7 34 88.4 57.1 160.4 57.1 106.1 0 157.7-54.4 160.4-125.1 0-146.8-225.7-104.7-225.7-167.2 0-23.1 20.4-39.4 55.7-39.4 39-.5 76.9 12.4 107.4 36.7 1.8 1.5 4.1 2.2 6.4 1.9 2.3-.3 4.4-1.4 5.8-3.3l35.4-47.6c1.5-1.8 2.2-4.1 1.9-6.4-.1-2.3-1.3-4.4-3.1-5.8zm203.9 111.5c37-2.1 68.9 25.6 72.1 62.5-.1 1.5-1.3 2.6-2.7 2.7H585.2c-1.5-.1-2.6-1.3-2.7-2.7 4.5-36.2 35.6-63.1 72-62.5z" style="fill:#2cb134"/></svg>