<svg xmlns="http://www.w3.org/2000/svg" xml:space="preserve" style="enable-background:new 0 0 1000 1000" viewBox="0 0 1000 1000"><style>.st0{display:none}.st1,.st10{display:inline}.st10{fill:#5c6692}.st14{fill:#5d84c4}.st15{fill:#e67606}.st16{fill:#a41185}.st17{fill:#e1d600}.st22{fill:#0098db}.st38{fill:#f8283b}.st41{display:inline;fill:#fff}.st43{fill:#33a7c0}.st44{fill:#fff}.st47{fill:#3a5978}.st56,.st57{display:inline;opacity:.1;enable-background:new}.st57{opacity:.2}.st62{fill:#de752c}.st70{display:inline;fill:#4c4c4c}.st71{fill:#9c0000}.st71,.st72,.st73{display:inline}.st72{fill:#b50808}.st73{fill:#c61818}.st77{fill:#3195e3}.st80{fill-rule:evenodd;clip-rule:evenodd}.st81{display:inline;fill:#ff3c00}</style><g id="Slack"><path d="M375 30.5c-51.8 0-93.7 42-93.7 93.9-.1 51.8 41.9 93.8 93.7 93.9h93.7v-93.9c.1-51.8-41.9-93.8-93.7-93.9m0 250.4H125.1c-51.8 0-93.7 42-93.7 93.9 0 51.9 42 93.9 93.7 93.9H375c51.7 0 93.7-42 93.7-93.9.1-51.9-41.9-93.9-93.7-93.9m593.6 93.9c0-51.9-42-93.9-93.7-93.9s-93.7 42-93.7 93.9v93.9h93.7c51.8-.1 93.7-42.1 93.7-93.9m-249.9 0V124.4c0-51.8-41.9-93.8-93.7-93.9-51.8 0-93.7 42-93.7 93.9v250.4c0 51.9 42 93.9 93.7 93.9 51.8 0 93.7-42.1 93.7-93.9" style="fill:#097eff"/><path d="M624.9 969.5c51.8-.1 93.8-42.1 93.7-93.9 0-51.8-41.9-93.8-93.7-93.9h-93.7v93.9c0 51.9 42 93.9 93.7 93.9m0-250.4h249.9c51.7 0 93.7-42 93.7-93.9 0-51.8-41.9-93.8-93.7-93.9H624.9c-51.8 0-93.7 42-93.7 93.9 0 51.8 41.9 93.8 93.7 93.9M31.4 625.2c-.1 51.8 41.9 93.8 93.7 93.9 51.8-.1 93.8-42.1 93.7-93.9v-93.9h-93.7c-51.7 0-93.7 42-93.7 93.9m249.9 0v250.4c0 51.9 42 93.9 93.7 93.9 51.8-.1 93.8-42.1 93.7-93.9V625.2c.1-51.8-41.9-93.8-93.7-93.9-51.7 0-93.7 42-93.7 93.9" style="fill:#ecb12f"/></g></svg>