<svg xmlns="http://www.w3.org/2000/svg" xml:space="preserve" x="0" y="0" style="enable-background:new 0 0 1000 1000" version="1.1" viewBox="0 0 1000 1000"><style>.st0{fill:#fff}</style><path d="M496.1 972.6c-251.8-1.7-470.7-210.7-469-476.2C28.7 241 241 25.9 503.6 27.7 758.9 29.3 974.3 241.2 972 500.8c2.1 257.3-214.3 473.6-475.9 471.8zm0 0c-251.8-1.7-470.7-210.7-469-476.2C28.7 241 241 25.9 503.6 27.7 758.9 29.3 974.3 241.2 972 500.8c2.1 257.3-214.3 473.6-475.9 471.8z" class="st0"/><path d="M496.5 909.8C278.2 908.3 88.4 727.1 89.8 496.9c1.4-221.5 185.5-408 413.3-406.5 221.4 1.5 408.1 185.2 406.1 410.3 1.9 223.1-185.8 410.7-412.7 409.1zm0 0C278.2 908.3 88.4 727.1 89.8 496.9c1.4-221.5 185.5-408 413.3-406.5 221.4 1.5 408.1 185.2 406.1 410.3 1.9 223.1-185.8 410.7-412.7 409.1z" style="fill:#49a32b"/><path d="M652.1 499.9c-1.1 19.5-18.1 35.7-34.9 32.9h-.3c-18.6 0-33.7-15.1-33.8-33.7.6-18.7 16.1-33.4 34.8-33.1 18.7.2 35.2 15.9 34.2 33.9zM352.6 689.2c7 .2 14 .1 22.1.1v50.9c-50.3 8.5-91.8-5.8-102-48.3-3.5-15.6-5.6-31.6-6.4-47.6-1.1-16.9.8-34.1-.5-51-3.6-46.6-9.6-62.4-54.3-64.6v-57.9c3.2-.7 6.4-1.3 9.7-1.7 24.5-1.2 34.8-8.7 40.3-32.8 2.5-13.6 4-27.3 4.4-41.1 1.9-26.6 1.3-53.7 5.7-79.9 6.4-37.9 29.9-56.3 68.8-58.4 11.1-.6 22.2-.1 34.7-.1v52c-5.2.4-9.9 1.1-14.6 1-31.7-1-33.3 9.8-35.6 36-1.4 16.4.5 33.2-.6 49.7-1.2 16.4-3.4 32.7-6.6 48.9-4.6 23.4-19 40.8-38.9 55.6 38.7 25.2 43.1 64.3 45.6 104 1.4 21.4.7 42.9 2.9 64.1 1.9 16.4 8.3 20.6 25.3 21.1zm32.6-223.1h.6c18.5.3 33.3 15.6 33 34.1 0 .6 0 1.2-.1 1.8-1 18.1-16.5 31.9-34.6 30.9h-2.2c-18.4-.9-32.6-16.6-31.7-35 1-18.5 16.6-32.7 35-31.8zm115.3 0c20.2-.2 33.7 13 33.8 33 .1 20.5-12.6 33.7-32.7 33.8-20.4.1-33.9-12.8-34-32.7-.1-1-.1-2 0-3 .5-17.8 15.3-31.7 32.9-31.1zm241.4-25.3c5.4 20.1 15.9 27.2 37 28.1 3.5.2 6.9.7 11.7 1.3v57.9c-2.6.8-5.2 1.5-7.9 1.9-28.4 1.8-41.3 13.4-44.2 41.8-1.8 18.2-1.7 36.5-2.9 54.7-.5 20-2.3 40-5.4 59.7-7.2 35.8-29.6 53.7-66.5 55.9-11.9.7-23.9.1-36.7.1v-51.8c6.9-.4 13-1 19.1-1.2 22.1-.5 29.9-7.6 31-29.6 1.2-24.1 1.7-48.2 2.8-72.3 1.6-34.8 11.1-65.9 43.5-87.6-18.6-13.2-33.5-29.3-37.3-50.9-4.7-26.2-6.2-53-8.7-79.5-1.2-13.3-1.2-26.7-2.5-39.9-1.4-14.3-11.2-19.3-24.3-19.6-7.5-.2-15 0-24.5 0v-50.6c60.9-10.1 103 10.2 106.9 68.5 1.6 24.5 1.4 49.1 3 73.6.7 13.3 2.7 26.5 5.9 39.5z" class="st0"/></svg>