<svg xmlns="http://www.w3.org/2000/svg" xml:space="preserve" x="0" y="0" style="enable-background:new 0 0 1000 1000" version="1.1" viewBox="0 0 1000 1000"><style>.st0{fill:#3178c6}</style><path d="M105.3 9.2h788.6c53 0 96.1 43.2 96.1 96.1v788.6c0 53-43.2 96.1-96.1 96.1H105.3c-53 0-96.1-43.2-96.1-96.1V105.3c0-53 43.1-96.1 96.1-96.1z" class="st0"/><path d="M105.3 9.2h788.6c53 0 96.1 43.2 96.1 96.1v788.6c0 53-43.2 96.1-96.1 96.1H105.3c-53 0-96.1-43.2-96.1-96.1V105.3c0-53 43.1-96.1 96.1-96.1z" class="st0"/><path d="M617.3 789.9V886c15.7 7.8 33.3 13.7 54.9 17.7 21.6 3.9 43.2 5.9 66.7 5.9s45.1-2 64.7-5.9c21.6-3.9 39.2-11.8 54.9-21.6s27.5-23.5 37.3-39.2c9.8-15.7 13.7-37.3 13.7-60.8 0-17.7-2-33.3-7.8-45.1-5.9-13.7-11.8-25.5-21.6-35.3-9.8-9.8-21.6-19.6-35.3-27.5-13.7-7.8-29.4-15.7-47.1-23.5-11.8-5.9-23.5-9.8-33.3-15.7-9.8-3.9-17.7-9.8-25.5-15.7-7.8-5.9-11.8-9.8-15.7-15.7-3.9-5.9-5.9-11.8-5.9-19.6 0-5.9 2-11.8 5.9-17.7 3.9-5.9 7.8-9.8 13.7-13.7 5.9-3.9 13.7-5.9 23.5-9.8 9.8-2 19.6-3.9 29.4-3.9 7.8 0 15.7 0 25.5 2s17.7 3.9 27.5 5.9c9.8 2 17.7 5.9 25.5 9.8 7.8 3.9 15.7 7.8 23.5 13.7V480c-13.7-5.9-31.4-9.8-47.1-11.8-17.7-2-37.3-3.9-58.9-3.9-23.5 0-45.1 2-64.7 7.8-19.6 3.9-39.2 11.8-53 23.5-15.7 9.8-27.5 23.5-37.3 39.2-9.8 15.7-13.7 35.3-13.7 56.9 0 29.4 7.8 53 25.5 72.6 15.7 19.6 41.2 37.3 74.5 51 13.7 5.9 25.5 9.8 37.3 15.7 11.8 5.9 21.6 9.8 29.4 15.7 7.8 5.9 15.7 11.8 19.6 17.7 3.9 5.9 7.8 13.7 7.8 21.6 0 5.9-2 11.8-3.9 17.7-3.9 5.9-7.8 9.8-13.7 13.7-5.9 3.9-13.7 7.8-23.5 9.8-11.8 5.9-23.5 5.9-35.3 5.9-21.6 0-41.2-3.9-60.8-11.8-21.4-5.9-41-17.7-56.7-31.4zM454.5 552.5H578V474H234.8v78.5h121.6v351.1h98.1V552.5z" style="fill-rule:evenodd;clip-rule:evenodd;fill:#fff"/></svg>